<svg xmlns="http://www.w3.org/2000/svg" width="676" height="120" viewBox="0 0 676 120">
  <defs><style>@import url('https://fonts.googleapis.com/css2?family=UnifrakturMaguntia&amp;family=IM+Fell+English:ital@0;1&amp;family=Cinzel:wght@400;700&amp;display=swap');</style></defs>
  <text x="40" y="14" font-family="Cinzel,serif" font-size="7" fill="#8b949e" letter-spacing="0.5">Jan</text><rect x="40" y="20" width="11" height="11" rx="2" fill="#21262d"/><rect x="40" y="33" width="11" height="11" rx="2" fill="#21262d"/><rect x="40" y="46" width="11" height="11" rx="2" fill="#21262d"/><rect x="40" y="59" width="11" height="11" rx="2" fill="#21262d"/><rect x="40" y="72" width="11" height="11" rx="2" fill="#21262d"/><rect x="40" y="85" width="11" height="11" rx="2" fill="#21262d"/><rect x="40" y="98" width="11" height="11" rx="2" fill="#21262d"/><rect x="40" y="111" width="11" height="11" rx="2" fill="#21262d"/><rect x="40" y="124" width="11" height="11" rx="2" fill="#21262d"/><rect x="40" y="137" width="11" height="11" rx="2" fill="#21262d"/><rect x="40" y="150" width="11" height="11" rx="2" fill="#21262d"/><rect x="40" y="163" width="11" height="11" rx="2" fill="#21262d"/><rect x="40" y="176" width="11" height="11" rx="2" fill="#21262d"/><rect x="40" y="189" width="11" height="11" rx="2" fill="#21262d"/><rect x="40" y="202" width="11" height="11" rx="2" fill="#21262d"/><rect x="40" y="215" width="11" height="11" rx="2" fill="#21262d"/><rect x="40" y="228" width="11" height="11" rx="2" fill="#21262d"/><rect x="40" y="241" width="11" height="11" rx="2" fill="#21262d"/><rect x="40" y="254" width="11" height="11" rx="2" fill="#21262d"/><rect x="40" y="267" width="11" height="11" rx="2" fill="#21262d"/><rect x="40" y="280" width="11" height="11" rx="2" fill="#21262d"/><rect x="40" y="293" width="11" height="11" rx="2" fill="#21262d"/><rect x="40" y="306" width="11" height="11" rx="2" fill="#21262d"/><rect x="40" y="319" width="11" height="11" rx="2" fill="#21262d"/><rect x="40" y="332" width="11" height="11" rx="2" fill="#21262d"/><rect x="40" y="345" width="11" height="11" rx="2" fill="#21262d"/><rect x="40" y="358" width="11" height="11" rx="2" fill="#21262d"/><rect x="40" y="371" width="11" height="11" rx="2" fill="#21262d"/><rect x="40" y="384" width="11" height="11" rx="2" fill="#21262d"/><rect x="40" y="397" width="11" height="11" rx="2" fill="#21262d"/><rect x="40" y="410" width="11" height="11" rx="2" fill="#21262d"/><rect x="40" y="423" width="11" height="11" rx="2" fill="#21262d"/><rect x="40" y="436" width="11" height="11" rx="2" fill="#21262d"/><rect x="40" y="449" width="11" height="11" rx="2" fill="#21262d"/><rect x="40" y="462" width="11" height="11" rx="2" fill="#21262d"/><rect x="40" y="475" width="11" height="11" rx="2" fill="#21262d"/><rect x="40" y="488" width="11" height="11" rx="2" fill="#21262d"/><rect x="40" y="501" width="11" height="11" rx="2" fill="#21262d"/><rect x="40" y="514" width="11" height="11" rx="2" fill="#21262d"/><rect x="40" y="527" width="11" height="11" rx="2" fill="#21262d"/><rect x="40" y="540" width="11" height="11" rx="2" fill="#21262d"/><rect x="40" y="553" width="11" height="11" rx="2" fill="#21262d"/><rect x="40" y="566" width="11" height="11" rx="2" fill="#21262d"/><rect x="40" y="579" width="11" height="11" rx="2" fill="#21262d"/><rect x="40" y="592" width="11" height="11" rx="2" fill="#21262d"/><rect x="40" y="605" width="11" height="11" rx="2" fill="#21262d"/><rect x="40" y="618" width="11" height="11" rx="2" fill="#0e4429"/><rect x="40" y="631" width="11" height="11" rx="2" fill="#26a641"/><rect x="40" y="644" width="11" height="11" rx="2" fill="#26a641"/><rect x="40" y="657" width="11" height="11" rx="2" fill="#0e4429"/><rect x="40" y="670" width="11" height="11" rx="2" fill="#21262d"/><rect x="40" y="683" width="11" height="11" rx="2" fill="#0e4429"/><rect x="40" y="696" width="11" height="11" rx="2" fill="#21262d"/><rect x="40" y="709" width="11" height="11" rx="2" fill="#21262d"/><rect x="40" y="722" width="11" height="11" rx="2" fill="#21262d"/><rect x="40" y="735" width="11" height="11" rx="2" fill="#21262d"/><rect x="40" y="748" width="11" height="11" rx="2" fill="#21262d"/><rect x="40" y="761" width="11" height="11" rx="2" fill="#21262d"/><rect x="40" y="774" width="11" height="11" rx="2" fill="#21262d"/><rect x="40" y="787" width="11" height="11" rx="2" fill="#21262d"/><rect x="40" y="800" width="11" height="11" rx="2" fill="#21262d"/><rect x="40" y="813" width="11" height="11" rx="2" fill="#21262d"/><rect x="40" y="826" width="11" height="11" rx="2" fill="#21262d"/><rect x="40" y="839" width="11" height="11" rx="2" fill="#21262d"/><rect x="40" y="852" width="11" height="11" rx="2" fill="#21262d"/><rect x="40" y="865" width="11" height="11" rx="2" fill="#21262d"/><rect x="40" y="878" width="11" height="11" rx="2" fill="#21262d"/><rect x="40" y="891" width="11" height="11" rx="2" fill="#21262d"/><rect x="40" y="904" width="11" height="11" rx="2" fill="#21262d"/><rect x="40" y="917" width="11" height="11" rx="2" fill="#21262d"/><rect x="40" y="930" width="11" height="11" rx="2" fill="#0e4429"/><rect x="40" y="943" width="11" height="11" rx="2" fill="#21262d"/><rect x="40" y="956" width="11" height="11" rx="2" fill="#21262d"/><rect x="40" y="969" width="11" height="11" rx="2" fill="#21262d"/><rect x="40" y="982" width="11" height="11" rx="2" fill="#21262d"/><rect x="40" y="995" width="11" height="11" rx="2" fill="#21262d"/><rect x="40" y="1008" width="11" height="11" rx="2" fill="#21262d"/><rect x="40" y="1021" width="11" height="11" rx="2" fill="#21262d"/><rect x="40" y="1034" width="11" height="11" rx="2" fill="#21262d"/><rect x="40" y="1047" width="11" height="11" rx="2" fill="#21262d"/><rect x="40" y="1060" width="11" height="11" rx="2" fill="#21262d"/><rect x="40" y="1073" width="11" height="11" rx="2" fill="#21262d"/><rect x="40" y="1086" width="11" height="11" rx="2" fill="#21262d"/><rect x="40" y="1099" width="11" height="11" rx="2" fill="#21262d"/><rect x="40" y="1112" width="11" height="11" rx="2" fill="#006d32"/><rect x="40" y="1125" width="11" height="11" rx="2" fill="#21262d"/><rect x="40" y="1138" width="11" height="11" rx="2" fill="#21262d"/><rect x="40" y="1151" width="11" height="11" rx="2" fill="#006d32"/><rect x="40" y="1164" width="11" height="11" rx="2" fill="#0e4429"/><rect x="40" y="1177" width="11" height="11" rx="2" fill="#21262d"/><rect x="40" y="1190" width="11" height="11" rx="2" fill="#21262d"/><rect x="40" y="1203" width="11" height="11" rx="2" fill="#21262d"/><rect x="40" y="1216" width="11" height="11" rx="2" fill="#21262d"/><rect x="40" y="1229" width="11" height="11" rx="2" fill="#0e4429"/><rect x="40" y="1242" width="11" height="11" rx="2" fill="#0e4429"/><rect x="40" y="1255" width="11" height="11" rx="2" fill="#0e4429"/><rect x="40" y="1268" width="11" height="11" rx="2" fill="#0e4429"/><rect x="40" y="1281" width="11" height="11" rx="2" fill="#0e4429"/><rect x="40" y="1294" width="11" height="11" rx="2" fill="#21262d"/><rect x="40" y="1307" width="11" height="11" rx="2" fill="#21262d"/><rect x="40" y="1320" width="11" height="11" rx="2" fill="#0e4429"/><rect x="40" y="1333" width="11" height="11" rx="2" fill="#0e4429"/><rect x="40" y="1346" width="11" height="11" rx="2" fill="#21262d"/><rect x="40" y="1359" width="11" height="11" rx="2" fill="#006d32"/><rect x="40" y="1372" width="11" height="11" rx="2" fill="#0e4429"/><rect x="40" y="1385" width="11" height="11" rx="2" fill="#006d32"/><rect x="40" y="1398" width="11" height="11" rx="2" fill="#0e4429"/><rect x="40" y="1411" width="11" height="11" rx="2" fill="#0e4429"/><rect x="40" y="1424" width="11" height="11" rx="2" fill="#006d32"/><rect x="40" y="1437" width="11" height="11" rx="2" fill="#0e4429"/><rect x="40" y="1450" width="11" height="11" rx="2" fill="#26a641"/><rect x="40" y="1463" width="11" height="11" rx="2" fill="#006d32"/><rect x="40" y="1476" width="11" height="11" rx="2" fill="#006d32"/><rect x="40" y="1489" width="11" height="11" rx="2" fill="#26a641"/><rect x="40" y="1502" width="11" height="11" rx="2" fill="#006d32"/><rect x="40" y="1515" width="11" height="11" rx="2" fill="#26a641"/><rect x="40" y="1528" width="11" height="11" rx="2" fill="#0e4429"/><rect x="40" y="1541" width="11" height="11" rx="2" fill="#0e4429"/><rect x="40" y="1554" width="11" height="11" rx="2" fill="#21262d"/><rect x="40" y="1567" width="11" height="11" rx="2" fill="#0e4429"/><rect x="40" y="1580" width="11" height="11" rx="2" fill="#21262d"/><rect x="40" y="1593" width="11" height="11" rx="2" fill="#006d32"/><rect x="40" y="1606" width="11" height="11" rx="2" fill="#006d32"/><rect x="40" y="1619" width="11" height="11" rx="2" fill="#21262d"/><rect x="40" y="1632" width="11" height="11" rx="2" fill="#0e4429"/><rect x="40" y="1645" width="11" height="11" rx="2" fill="#0e4429"/><rect x="40" y="1658" width="11" height="11" rx="2" fill="#006d32"/><rect x="40" y="1671" width="11" height="11" rx="2" fill="#0e4429"/><rect x="40" y="1684" width="11" height="11" rx="2" fill="#0e4429"/><rect x="40" y="1697" width="11" height="11" rx="2" fill="#0e4429"/><rect x="40" y="1710" width="11" height="11" rx="2" fill="#0e4429"/><rect x="40" y="1723" width="11" height="11" rx="2" fill="#0e4429"/><rect x="40" y="1736" width="11" height="11" rx="2" fill="#0e4429"/><rect x="40" y="1749" width="11" height="11" rx="2" fill="#0e4429"/><rect x="40" y="1762" width="11" height="11" rx="2" fill="#21262d"/><rect x="40" y="1775" width="11" height="11" rx="2" fill="#0e4429"/><rect x="40" y="1788" width="11" height="11" rx="2" fill="#0e4429"/><rect x="40" y="1801" width="11" height="11" rx="2" fill="#0e4429"/><rect x="40" y="1814" width="11" height="11" rx="2" fill="#21262d"/><rect x="40" y="1827" width="11" height="11" rx="2" fill="#21262d"/><rect x="40" y="1840" width="11" height="11" rx="2" fill="#0e4429"/><rect x="40" y="1853" width="11" height="11" rx="2" fill="#0e4429"/><rect x="40" y="1866" width="11" height="11" rx="2" fill="#0e4429"/><rect x="40" y="1879" width="11" height="11" rx="2" fill="#39d353"/><rect x="40" y="1892" width="11" height="11" rx="2" fill="#0e4429"/><rect x="40" y="1905" width="11" height="11" rx="2" fill="#0e4429"/><rect x="40" y="1918" width="11" height="11" rx="2" fill="#26a641"/><rect x="40" y="1931" width="11" height="11" rx="2" fill="#0e4429"/><rect x="40" y="1944" width="11" height="11" rx="2" fill="#21262d"/><rect x="40" y="1957" width="11" height="11" rx="2" fill="#006d32"/><rect x="40" y="1970" width="11" height="11" rx="2" fill="#0e4429"/><rect x="40" y="1983" width="11" height="11" rx="2" fill="#006d32"/><rect x="40" y="1996" width="11" height="11" rx="2" fill="#0e4429"/><rect x="40" y="2009" width="11" height="11" rx="2" fill="#0e4429"/><rect x="40" y="2022" width="11" height="11" rx="2" fill="#006d32"/><rect x="40" y="2035" width="11" height="11" rx="2" fill="#21262d"/><rect x="40" y="2048" width="11" height="11" rx="2" fill="#21262d"/><rect x="40" y="2061" width="11" height="11" rx="2" fill="#21262d"/><rect x="40" y="2074" width="11" height="11" rx="2" fill="#0e4429"/><rect x="40" y="2087" width="11" height="11" rx="2" fill="#21262d"/><rect x="40" y="2100" width="11" height="11" rx="2" fill="#21262d"/><rect x="40" y="2113" width="11" height="11" rx="2" fill="#21262d"/><rect x="40" y="2126" width="11" height="11" rx="2" fill="#0e4429"/><rect x="40" y="2139" width="11" height="11" rx="2" fill="#0e4429"/><rect x="40" y="2152" width="11" height="11" rx="2" fill="#21262d"/><rect x="40" y="2165" width="11" height="11" rx="2" fill="#0e4429"/><rect x="40" y="2178" width="11" height="11" rx="2" fill="#39d353"/><rect x="40" y="2191" width="11" height="11" rx="2" fill="#006d32"/><rect x="40" y="2204" width="11" height="11" rx="2" fill="#21262d"/><rect x="40" y="2217" width="11" height="11" rx="2" fill="#0e4429"/><rect x="40" y="2230" width="11" height="11" rx="2" fill="#21262d"/><rect x="40" y="2243" width="11" height="11" rx="2" fill="#0e4429"/><rect x="40" y="2256" width="11" height="11" rx="2" fill="#21262d"/><rect x="40" y="2269" width="11" height="11" rx="2" fill="#39d353"/><rect x="40" y="2282" width="11" height="11" rx="2" fill="#39d353"/><rect x="40" y="2295" width="11" height="11" rx="2" fill="#21262d"/><rect x="40" y="2308" width="11" height="11" rx="2" fill="#21262d"/><rect x="40" y="2321" width="11" height="11" rx="2" fill="#21262d"/><rect x="40" y="2334" width="11" height="11" rx="2" fill="#21262d"/><rect x="40" y="2347" width="11" height="11" rx="2" fill="#21262d"/><rect x="40" y="2360" width="11" height="11" rx="2" fill="#21262d"/><rect x="40" y="2373" width="11" height="11" rx="2" fill="#21262d"/><rect x="40" y="2386" width="11" height="11" rx="2" fill="#21262d"/><rect x="40" y="2399" width="11" height="11" rx="2" fill="#21262d"/><rect x="40" y="2412" width="11" height="11" rx="2" fill="#21262d"/><rect x="40" y="2425" width="11" height="11" rx="2" fill="#21262d"/><rect x="40" y="2438" width="11" height="11" rx="2" fill="#21262d"/><rect x="40" y="2451" width="11" height="11" rx="2" fill="#21262d"/><rect x="40" y="2464" width="11" height="11" rx="2" fill="#21262d"/><rect x="40" y="2477" width="11" height="11" rx="2" fill="#21262d"/><rect x="40" y="2490" width="11" height="11" rx="2" fill="#21262d"/><rect x="40" y="2503" width="11" height="11" rx="2" fill="#21262d"/><rect x="40" y="2516" width="11" height="11" rx="2" fill="#21262d"/><rect x="40" y="2529" width="11" height="11" rx="2" fill="#21262d"/><rect x="40" y="2542" width="11" height="11" rx="2" fill="#21262d"/><rect x="40" y="2555" width="11" height="11" rx="2" fill="#21262d"/><rect x="40" y="2568" width="11" height="11" rx="2" fill="#21262d"/><rect x="40" y="2581" width="11" height="11" rx="2" fill="#21262d"/><rect x="40" y="2594" width="11" height="11" rx="2" fill="#21262d"/><rect x="40" y="2607" width="11" height="11" rx="2" fill="#21262d"/><rect x="40" y="2620" width="11" height="11" rx="2" fill="#21262d"/><rect x="40" y="2633" width="11" height="11" rx="2" fill="#21262d"/><rect x="40" y="2646" width="11" height="11" rx="2" fill="#21262d"/><rect x="40" y="2659" width="11" height="11" rx="2" fill="#21262d"/><rect x="40" y="2672" width="11" height="11" rx="2" fill="#21262d"/><rect x="40" y="2685" width="11" height="11" rx="2" fill="#21262d"/><rect x="40" y="2698" width="11" height="11" rx="2" fill="#21262d"/><rect x="40" y="2711" width="11" height="11" rx="2" fill="#21262d"/><rect x="40" y="2724" width="11" height="11" rx="2" fill="#21262d"/><rect x="40" y="2737" width="11" height="11" rx="2" fill="#21262d"/><rect x="40" y="2750" width="11" height="11" rx="2" fill="#21262d"/><rect x="40" y="2763" width="11" height="11" rx="2" fill="#21262d"/><rect x="40" y="2776" width="11" height="11" rx="2" fill="#21262d"/><rect x="40" y="2789" width="11" height="11" rx="2" fill="#21262d"/><rect x="40" y="2802" width="11" height="11" rx="2" fill="#21262d"/><rect x="40" y="2815" width="11" height="11" rx="2" fill="#21262d"/><rect x="40" y="2828" width="11" height="11" rx="2" fill="#21262d"/><rect x="40" y="2841" width="11" height="11" rx="2" fill="#21262d"/><rect x="40" y="2854" width="11" height="11" rx="2" fill="#21262d"/><rect x="40" y="2867" width="11" height="11" rx="2" fill="#21262d"/><rect x="40" y="2880" width="11" height="11" rx="2" fill="#21262d"/><rect x="40" y="2893" width="11" height="11" rx="2" fill="#21262d"/><rect x="40" y="2906" width="11" height="11" rx="2" fill="#21262d"/><rect x="40" y="2919" width="11" height="11" rx="2" fill="#21262d"/><rect x="40" y="2932" width="11" height="11" rx="2" fill="#21262d"/><rect x="40" y="2945" width="11" height="11" rx="2" fill="#21262d"/><rect x="40" y="2958" width="11" height="11" rx="2" fill="#21262d"/><rect x="40" y="2971" width="11" height="11" rx="2" fill="#21262d"/><rect x="40" y="2984" width="11" height="11" rx="2" fill="#21262d"/><rect x="40" y="2997" width="11" height="11" rx="2" fill="#21262d"/><rect x="40" y="3010" width="11" height="11" rx="2" fill="#21262d"/><rect x="40" y="3023" width="11" height="11" rx="2" fill="#21262d"/><rect x="40" y="3036" width="11" height="11" rx="2" fill="#21262d"/><rect x="40" y="3049" width="11" height="11" rx="2" fill="#21262d"/><rect x="40" y="3062" width="11" height="11" rx="2" fill="#21262d"/><rect x="40" y="3075" width="11" height="11" rx="2" fill="#21262d"/><rect x="40" y="3088" width="11" height="11" rx="2" fill="#21262d"/><rect x="40" y="3101" width="11" height="11" rx="2" fill="#21262d"/><rect x="40" y="3114" width="11" height="11" rx="2" fill="#21262d"/><rect x="40" y="3127" width="11" height="11" rx="2" fill="#21262d"/><rect x="40" y="3140" width="11" height="11" rx="2" fill="#21262d"/><rect x="40" y="3153" width="11" height="11" rx="2" fill="#21262d"/><rect x="40" y="3166" width="11" height="11" rx="2" fill="#21262d"/><rect x="40" y="3179" width="11" height="11" rx="2" fill="#21262d"/><rect x="40" y="3192" width="11" height="11" rx="2" fill="#21262d"/><rect x="40" y="3205" width="11" height="11" rx="2" fill="#21262d"/><rect x="40" y="3218" width="11" height="11" rx="2" fill="#21262d"/><rect x="40" y="3231" width="11" height="11" rx="2" fill="#21262d"/><rect x="40" y="3244" width="11" height="11" rx="2" fill="#21262d"/><rect x="40" y="3257" width="11" height="11" rx="2" fill="#21262d"/><rect x="40" y="3270" width="11" height="11" rx="2" fill="#21262d"/><rect x="40" y="3283" width="11" height="11" rx="2" fill="#21262d"/><rect x="40" y="3296" width="11" height="11" rx="2" fill="#21262d"/><rect x="40" y="3309" width="11" height="11" rx="2" fill="#21262d"/><rect x="40" y="3322" width="11" height="11" rx="2" fill="#21262d"/><rect x="40" y="3335" width="11" height="11" rx="2" fill="#21262d"/><rect x="40" y="3348" width="11" height="11" rx="2" fill="#21262d"/><rect x="40" y="3361" width="11" height="11" rx="2" fill="#21262d"/><rect x="40" y="3374" width="11" height="11" rx="2" fill="#21262d"/><rect x="40" y="3387" width="11" height="11" rx="2" fill="#21262d"/><rect x="40" y="3400" width="11" height="11" rx="2" fill="#21262d"/><rect x="40" y="3413" width="11" height="11" rx="2" fill="#21262d"/><rect x="40" y="3426" width="11" height="11" rx="2" fill="#21262d"/><rect x="40" y="3439" width="11" height="11" rx="2" fill="#21262d"/><rect x="40" y="3452" width="11" height="11" rx="2" fill="#21262d"/><rect x="40" y="3465" width="11" height="11" rx="2" fill="#21262d"/><rect x="40" y="3478" width="11" height="11" rx="2" fill="#21262d"/><rect x="40" y="3491" width="11" height="11" rx="2" fill="#21262d"/><rect x="40" y="3504" width="11" height="11" rx="2" fill="#21262d"/><rect x="40" y="3517" width="11" height="11" rx="2" fill="#21262d"/><rect x="40" y="3530" width="11" height="11" rx="2" fill="#21262d"/><rect x="40" y="3543" width="11" height="11" rx="2" fill="#21262d"/><rect x="40" y="3556" width="11" height="11" rx="2" fill="#21262d"/><rect x="40" y="3569" width="11" height="11" rx="2" fill="#21262d"/><rect x="40" y="3582" width="11" height="11" rx="2" fill="#21262d"/><rect x="40" y="3595" width="11" height="11" rx="2" fill="#21262d"/><rect x="40" y="3608" width="11" height="11" rx="2" fill="#21262d"/><rect x="40" y="3621" width="11" height="11" rx="2" fill="#21262d"/><rect x="40" y="3634" width="11" height="11" rx="2" fill="#21262d"/><rect x="40" y="3647" width="11" height="11" rx="2" fill="#21262d"/><rect x="40" y="3660" width="11" height="11" rx="2" fill="#21262d"/><rect x="40" y="3673" width="11" height="11" rx="2" fill="#21262d"/><rect x="40" y="3686" width="11" height="11" rx="2" fill="#21262d"/><rect x="40" y="3699" width="11" height="11" rx="2" fill="#21262d"/><rect x="40" y="3712" width="11" height="11" rx="2" fill="#21262d"/><rect x="40" y="3725" width="11" height="11" rx="2" fill="#21262d"/><rect x="40" y="3738" width="11" height="11" rx="2" fill="#21262d"/><rect x="40" y="3751" width="11" height="11" rx="2" fill="#21262d"/><rect x="40" y="3764" width="11" height="11" rx="2" fill="#21262d"/><rect x="40" y="3777" width="11" height="11" rx="2" fill="#21262d"/><rect x="40" y="3790" width="11" height="11" rx="2" fill="#21262d"/><rect x="40" y="3803" width="11" height="11" rx="2" fill="#21262d"/><rect x="40" y="3816" width="11" height="11" rx="2" fill="#21262d"/><rect x="40" y="3829" width="11" height="11" rx="2" fill="#21262d"/><rect x="40" y="3842" width="11" height="11" rx="2" fill="#21262d"/><rect x="40" y="3855" width="11" height="11" rx="2" fill="#21262d"/><rect x="40" y="3868" width="11" height="11" rx="2" fill="#21262d"/><rect x="40" y="3881" width="11" height="11" rx="2" fill="#21262d"/><rect x="40" y="3894" width="11" height="11" rx="2" fill="#21262d"/><rect x="40" y="3907" width="11" height="11" rx="2" fill="#21262d"/><rect x="40" y="3920" width="11" height="11" rx="2" fill="#21262d"/><rect x="40" y="3933" width="11" height="11" rx="2" fill="#21262d"/><rect x="40" y="3946" width="11" height="11" rx="2" fill="#21262d"/><rect x="40" y="3959" width="11" height="11" rx="2" fill="#21262d"/><rect x="40" y="3972" width="11" height="11" rx="2" fill="#21262d"/><rect x="40" y="3985" width="11" height="11" rx="2" fill="#21262d"/><rect x="40" y="3998" width="11" height="11" rx="2" fill="#21262d"/><rect x="40" y="4011" width="11" height="11" rx="2" fill="#21262d"/><rect x="40" y="4024" width="11" height="11" rx="2" fill="#21262d"/><rect x="40" y="4037" width="11" height="11" rx="2" fill="#21262d"/><rect x="40" y="4050" width="11" height="11" rx="2" fill="#21262d"/><rect x="40" y="4063" width="11" height="11" rx="2" fill="#21262d"/><rect x="40" y="4076" width="11" height="11" rx="2" fill="#21262d"/><rect x="40" y="4089" width="11" height="11" rx="2" fill="#21262d"/><rect x="40" y="4102" width="11" height="11" rx="2" fill="#21262d"/><rect x="40" y="4115" width="11" height="11" rx="2" fill="#21262d"/><rect x="40" y="4128" width="11" height="11" rx="2" fill="#21262d"/><rect x="40" y="4141" width="11" height="11" rx="2" fill="#21262d"/><rect x="40" y="4154" width="11" height="11" rx="2" fill="#21262d"/><rect x="40" y="4167" width="11" height="11" rx="2" fill="#21262d"/><rect x="40" y="4180" width="11" height="11" rx="2" fill="#21262d"/><rect x="40" y="4193" width="11" height="11" rx="2" fill="#21262d"/><rect x="40" y="4206" width="11" height="11" rx="2" fill="#21262d"/><rect x="40" y="4219" width="11" height="11" rx="2" fill="#21262d"/><rect x="40" y="4232" width="11" height="11" rx="2" fill="#21262d"/><rect x="40" y="4245" width="11" height="11" rx="2" fill="#21262d"/><rect x="40" y="4258" width="11" height="11" rx="2" fill="#21262d"/><rect x="40" y="4271" width="11" height="11" rx="2" fill="#21262d"/><rect x="40" y="4284" width="11" height="11" rx="2" fill="#21262d"/><rect x="40" y="4297" width="11" height="11" rx="2" fill="#21262d"/><rect x="40" y="4310" width="11" height="11" rx="2" fill="#21262d"/><rect x="40" y="4323" width="11" height="11" rx="2" fill="#21262d"/><rect x="40" y="4336" width="11" height="11" rx="2" fill="#21262d"/><rect x="40" y="4349" width="11" height="11" rx="2" fill="#21262d"/><rect x="40" y="4362" width="11" height="11" rx="2" fill="#21262d"/><rect x="40" y="4375" width="11" height="11" rx="2" fill="#21262d"/><rect x="40" y="4388" width="11" height="11" rx="2" fill="#21262d"/><rect x="40" y="4401" width="11" height="11" rx="2" fill="#21262d"/><rect x="40" y="4414" width="11" height="11" rx="2" fill="#21262d"/><rect x="40" y="4427" width="11" height="11" rx="2" fill="#21262d"/><rect x="40" y="4440" width="11" height="11" rx="2" fill="#21262d"/><rect x="40" y="4453" width="11" height="11" rx="2" fill="#21262d"/><rect x="40" y="4466" width="11" height="11" rx="2" fill="#21262d"/><rect x="40" y="4479" width="11" height="11" rx="2" fill="#21262d"/><rect x="40" y="4492" width="11" height="11" rx="2" fill="#21262d"/><rect x="40" y="4505" width="11" height="11" rx="2" fill="#21262d"/><rect x="40" y="4518" width="11" height="11" rx="2" fill="#21262d"/><rect x="40" y="4531" width="11" height="11" rx="2" fill="#21262d"/><rect x="40" y="4544" width="11" height="11" rx="2" fill="#21262d"/><rect x="40" y="4557" width="11" height="11" rx="2" fill="#21262d"/><rect x="40" y="4570" width="11" height="11" rx="2" fill="#21262d"/><rect x="40" y="4583" width="11" height="11" rx="2" fill="#21262d"/><rect x="40" y="4596" width="11" height="11" rx="2" fill="#21262d"/><rect x="40" y="4609" width="11" height="11" rx="2" fill="#21262d"/><rect x="40" y="4622" width="11" height="11" rx="2" fill="#21262d"/><rect x="40" y="4635" width="11" height="11" rx="2" fill="#21262d"/><rect x="40" y="4648" width="11" height="11" rx="2" fill="#21262d"/><rect x="40" y="4661" width="11" height="11" rx="2" fill="#21262d"/><rect x="40" y="4674" width="11" height="11" rx="2" fill="#21262d"/><rect x="40" y="4687" width="11" height="11" rx="2" fill="#21262d"/><rect x="40" y="4700" width="11" height="11" rx="2" fill="#21262d"/><rect x="40" y="4713" width="11" height="11" rx="2" fill="#21262d"/><rect x="40" y="4726" width="11" height="11" rx="2" fill="#21262d"/><rect x="40" y="4739" width="11" height="11" rx="2" fill="#21262d"/><rect x="40" y="4752" width="11" height="11" rx="2" fill="#21262d"/>
</svg>