<svg xmlns="http://www.w3.org/2000/svg" width="676" height="120" viewBox="0 0 676 120">
  <defs><style>@import url('https://fonts.googleapis.com/css2?family=UnifrakturMaguntia&amp;family=IM+Fell+English:ital@0;1&amp;family=Cinzel:wght@400;700&amp;display=swap');</style></defs>
  <text x="40" y="14" font-family="Cinzel,serif" font-size="7" fill="#8b949e" letter-spacing="0.5">Aug</text><rect x="40" y="20" width="11" height="11" rx="2" fill="#006d32"/><rect x="40" y="33" width="11" height="11" rx="2" fill="#21262d"/><rect x="40" y="46" width="11" height="11" rx="2" fill="#26a641"/><rect x="40" y="59" width="11" height="11" rx="2" fill="#21262d"/><rect x="40" y="72" width="11" height="11" rx="2" fill="#0e4429"/><rect x="40" y="85" width="11" height="11" rx="2" fill="#21262d"/><rect x="40" y="98" width="11" height="11" rx="2" fill="#21262d"/><rect x="53" y="20" width="11" height="11" rx="2" fill="#21262d"/><rect x="53" y="33" width="11" height="11" rx="2" fill="#0e4429"/><rect x="53" y="46" width="11" height="11" rx="2" fill="#39d353"/><rect x="53" y="59" width="11" height="11" rx="2" fill="#0e4429"/><rect x="53" y="72" width="11" height="11" rx="2" fill="#26a641"/><rect x="53" y="85" width="11" height="11" rx="2" fill="#21262d"/><rect x="53" y="98" width="11" height="11" rx="2" fill="#21262d"/><rect x="66" y="20" width="11" height="11" rx="2" fill="#21262d"/><rect x="66" y="33" width="11" height="11" rx="2" fill="#0e4429"/><rect x="66" y="46" width="11" height="11" rx="2" fill="#21262d"/><rect x="66" y="59" width="11" height="11" rx="2" fill="#0e4429"/><rect x="66" y="72" width="11" height="11" rx="2" fill="#21262d"/><rect x="66" y="85" width="11" height="11" rx="2" fill="#39d353"/><rect x="66" y="98" width="11" height="11" rx="2" fill="#39d353"/><rect x="79" y="20" width="11" height="11" rx="2" fill="#39d353"/><rect x="79" y="33" width="11" height="11" rx="2" fill="#006d32"/><rect x="79" y="46" width="11" height="11" rx="2" fill="#21262d"/><rect x="79" y="59" width="11" height="11" rx="2" fill="#21262d"/><rect x="79" y="72" width="11" height="11" rx="2" fill="#21262d"/><rect x="79" y="85" width="11" height="11" rx="2" fill="#39d353"/><rect x="79" y="98" width="11" height="11" rx="2" fill="#26a641"/><text x="92" y="14" font-family="Cinzel,serif" font-size="7" fill="#8b949e" letter-spacing="0.5">Sep</text><rect x="92" y="20" width="11" height="11" rx="2" fill="#0e4429"/><rect x="92" y="33" width="11" height="11" rx="2" fill="#21262d"/><rect x="92" y="46" width="11" height="11" rx="2" fill="#21262d"/><rect x="92" y="59" width="11" height="11" rx="2" fill="#39d353"/><rect x="92" y="72" width="11" height="11" rx="2" fill="#26a641"/><rect x="92" y="85" width="11" height="11" rx="2" fill="#21262d"/><rect x="92" y="98" width="11" height="11" rx="2" fill="#006d32"/><rect x="105" y="20" width="11" height="11" rx="2" fill="#39d353"/><rect x="105" y="33" width="11" height="11" rx="2" fill="#0e4429"/><rect x="105" y="46" width="11" height="11" rx="2" fill="#21262d"/><rect x="105" y="59" width="11" height="11" rx="2" fill="#0e4429"/><rect x="105" y="72" width="11" height="11" rx="2" fill="#21262d"/><rect x="105" y="85" width="11" height="11" rx="2" fill="#39d353"/><rect x="105" y="98" width="11" height="11" rx="2" fill="#39d353"/><rect x="118" y="20" width="11" height="11" rx="2" fill="#0e4429"/><rect x="118" y="33" width="11" height="11" rx="2" fill="#21262d"/><rect x="118" y="46" width="11" height="11" rx="2" fill="#39d353"/><rect x="118" y="59" width="11" height="11" rx="2" fill="#0e4429"/><rect x="118" y="72" width="11" height="11" rx="2" fill="#0e4429"/><rect x="118" y="85" width="11" height="11" rx="2" fill="#21262d"/><rect x="118" y="98" width="11" height="11" rx="2" fill="#0e4429"/><rect x="131" y="20" width="11" height="11" rx="2" fill="#0e4429"/><rect x="131" y="33" width="11" height="11" rx="2" fill="#0e4429"/><rect x="131" y="46" width="11" height="11" rx="2" fill="#006d32"/><rect x="131" y="59" width="11" height="11" rx="2" fill="#0e4429"/><rect x="131" y="72" width="11" height="11" rx="2" fill="#21262d"/><rect x="131" y="85" width="11" height="11" rx="2" fill="#21262d"/><rect x="131" y="98" width="11" height="11" rx="2" fill="#21262d"/><rect x="144" y="20" width="11" height="11" rx="2" fill="#26a641"/><rect x="144" y="33" width="11" height="11" rx="2" fill="#0e4429"/><rect x="144" y="46" width="11" height="11" rx="2" fill="#0e4429"/><rect x="144" y="59" width="11" height="11" rx="2" fill="#39d353"/><rect x="144" y="72" width="11" height="11" rx="2" fill="#0e4429"/><rect x="144" y="85" width="11" height="11" rx="2" fill="#26a641"/><rect x="144" y="98" width="11" height="11" rx="2" fill="#21262d"/><text x="157" y="14" font-family="Cinzel,serif" font-size="7" fill="#8b949e" letter-spacing="0.5">Oct</text><rect x="157" y="20" width="11" height="11" rx="2" fill="#0e4429"/><rect x="157" y="33" width="11" height="11" rx="2" fill="#0e4429"/><rect x="157" y="46" width="11" height="11" rx="2" fill="#21262d"/><rect x="157" y="59" width="11" height="11" rx="2" fill="#26a641"/><rect x="157" y="72" width="11" height="11" rx="2" fill="#006d32"/><rect x="157" y="85" width="11" height="11" rx="2" fill="#39d353"/><rect x="157" y="98" width="11" height="11" rx="2" fill="#39d353"/><rect x="170" y="20" width="11" height="11" rx="2" fill="#21262d"/><rect x="170" y="33" width="11" height="11" rx="2" fill="#0e4429"/><rect x="170" y="46" width="11" height="11" rx="2" fill="#0e4429"/><rect x="170" y="59" width="11" height="11" rx="2" fill="#0e4429"/><rect x="170" y="72" width="11" height="11" rx="2" fill="#006d32"/><rect x="170" y="85" width="11" height="11" rx="2" fill="#0e4429"/><rect x="170" y="98" width="11" height="11" rx="2" fill="#21262d"/><rect x="183" y="20" width="11" height="11" rx="2" fill="#0e4429"/><rect x="183" y="33" width="11" height="11" rx="2" fill="#21262d"/><rect x="183" y="46" width="11" height="11" rx="2" fill="#0e4429"/><rect x="183" y="59" width="11" height="11" rx="2" fill="#21262d"/><rect x="183" y="72" width="11" height="11" rx="2" fill="#21262d"/><rect x="183" y="85" width="11" height="11" rx="2" fill="#21262d"/><rect x="183" y="98" width="11" height="11" rx="2" fill="#21262d"/><rect x="196" y="20" width="11" height="11" rx="2" fill="#006d32"/><rect x="196" y="33" width="11" height="11" rx="2" fill="#21262d"/><rect x="196" y="46" width="11" height="11" rx="2" fill="#26a641"/><rect x="196" y="59" width="11" height="11" rx="2" fill="#26a641"/><rect x="196" y="72" width="11" height="11" rx="2" fill="#21262d"/><rect x="196" y="85" width="11" height="11" rx="2" fill="#21262d"/><rect x="196" y="98" width="11" height="11" rx="2" fill="#26a641"/><text x="209" y="14" font-family="Cinzel,serif" font-size="7" fill="#8b949e" letter-spacing="0.5">Nov</text><rect x="209" y="20" width="11" height="11" rx="2" fill="#0e4429"/><rect x="209" y="33" width="11" height="11" rx="2" fill="#21262d"/><rect x="209" y="46" width="11" height="11" rx="2" fill="#39d353"/><rect x="209" y="59" width="11" height="11" rx="2" fill="#39d353"/><rect x="209" y="72" width="11" height="11" rx="2" fill="#39d353"/><rect x="209" y="85" width="11" height="11" rx="2" fill="#21262d"/><rect x="209" y="98" width="11" height="11" rx="2" fill="#0e4429"/><rect x="222" y="20" width="11" height="11" rx="2" fill="#0e4429"/><rect x="222" y="33" width="11" height="11" rx="2" fill="#21262d"/><rect x="222" y="46" width="11" height="11" rx="2" fill="#21262d"/><rect x="222" y="59" width="11" height="11" rx="2" fill="#39d353"/><rect x="222" y="72" width="11" height="11" rx="2" fill="#21262d"/><rect x="222" y="85" width="11" height="11" rx="2" fill="#21262d"/><rect x="222" y="98" width="11" height="11" rx="2" fill="#26a641"/><rect x="235" y="20" width="11" height="11" rx="2" fill="#0e4429"/><rect x="235" y="33" width="11" height="11" rx="2" fill="#21262d"/><rect x="235" y="46" width="11" height="11" rx="2" fill="#26a641"/><rect x="235" y="59" width="11" height="11" rx="2" fill="#21262d"/><rect x="235" y="72" width="11" height="11" rx="2" fill="#0e4429"/><rect x="235" y="85" width="11" height="11" rx="2" fill="#26a641"/><rect x="235" y="98" width="11" height="11" rx="2" fill="#0e4429"/><rect x="248" y="20" width="11" height="11" rx="2" fill="#006d32"/><rect x="248" y="33" width="11" height="11" rx="2" fill="#0e4429"/><rect x="248" y="46" width="11" height="11" rx="2" fill="#21262d"/><rect x="248" y="59" width="11" height="11" rx="2" fill="#21262d"/><rect x="248" y="72" width="11" height="11" rx="2" fill="#21262d"/><rect x="248" y="85" width="11" height="11" rx="2" fill="#21262d"/><rect x="248" y="98" width="11" height="11" rx="2" fill="#26a641"/><text x="261" y="14" font-family="Cinzel,serif" font-size="7" fill="#8b949e" letter-spacing="0.5">Dec</text><rect x="261" y="20" width="11" height="11" rx="2" fill="#21262d"/><rect x="261" y="33" width="11" height="11" rx="2" fill="#0e4429"/><rect x="261" y="46" width="11" height="11" rx="2" fill="#0e4429"/><rect x="261" y="59" width="11" height="11" rx="2" fill="#21262d"/><rect x="261" y="72" width="11" height="11" rx="2" fill="#0e4429"/><rect x="261" y="85" width="11" height="11" rx="2" fill="#21262d"/><rect x="261" y="98" width="11" height="11" rx="2" fill="#0e4429"/><rect x="274" y="20" width="11" height="11" rx="2" fill="#0e4429"/><rect x="274" y="33" width="11" height="11" rx="2" fill="#0e4429"/><rect x="274" y="46" width="11" height="11" rx="2" fill="#0e4429"/><rect x="274" y="59" width="11" height="11" rx="2" fill="#21262d"/><rect x="274" y="72" width="11" height="11" rx="2" fill="#0e4429"/><rect x="274" y="85" width="11" height="11" rx="2" fill="#21262d"/><rect x="274" y="98" width="11" height="11" rx="2" fill="#26a641"/><rect x="287" y="20" width="11" height="11" rx="2" fill="#39d353"/><rect x="287" y="33" width="11" height="11" rx="2" fill="#21262d"/><rect x="287" y="46" width="11" height="11" rx="2" fill="#006d32"/><rect x="287" y="59" width="11" height="11" rx="2" fill="#006d32"/><rect x="287" y="72" width="11" height="11" rx="2" fill="#21262d"/><rect x="287" y="85" width="11" height="11" rx="2" fill="#26a641"/><rect x="287" y="98" width="11" height="11" rx="2" fill="#21262d"/><rect x="300" y="20" width="11" height="11" rx="2" fill="#21262d"/><rect x="300" y="33" width="11" height="11" rx="2" fill="#006d32"/><rect x="300" y="46" width="11" height="11" rx="2" fill="#0e4429"/><rect x="300" y="59" width="11" height="11" rx="2" fill="#0e4429"/><rect x="300" y="72" width="11" height="11" rx="2" fill="#39d353"/><rect x="300" y="85" width="11" height="11" rx="2" fill="#0e4429"/><rect x="300" y="98" width="11" height="11" rx="2" fill="#006d32"/><rect x="313" y="20" width="11" height="11" rx="2" fill="#26a641"/><rect x="313" y="33" width="11" height="11" rx="2" fill="#21262d"/><rect x="313" y="46" width="11" height="11" rx="2" fill="#006d32"/><rect x="313" y="59" width="11" height="11" rx="2" fill="#21262d"/><rect x="313" y="72" width="11" height="11" rx="2" fill="#21262d"/><rect x="313" y="85" width="11" height="11" rx="2" fill="#006d32"/><rect x="313" y="98" width="11" height="11" rx="2" fill="#0e4429"/><text x="326" y="14" font-family="Cinzel,serif" font-size="7" fill="#8b949e" letter-spacing="0.5">Jan</text><rect x="326" y="20" width="11" height="11" rx="2" fill="#26a641"/><rect x="326" y="33" width="11" height="11" rx="2" fill="#21262d"/><rect x="326" y="46" width="11" height="11" rx="2" fill="#26a641"/><rect x="326" y="59" width="11" height="11" rx="2" fill="#006d32"/><rect x="326" y="72" width="11" height="11" rx="2" fill="#21262d"/><rect x="326" y="85" width="11" height="11" rx="2" fill="#39d353"/><rect x="326" y="98" width="11" height="11" rx="2" fill="#39d353"/><rect x="339" y="20" width="11" height="11" rx="2" fill="#21262d"/><rect x="339" y="33" width="11" height="11" rx="2" fill="#39d353"/><rect x="339" y="46" width="11" height="11" rx="2" fill="#0e4429"/><rect x="339" y="59" width="11" height="11" rx="2" fill="#26a641"/><rect x="339" y="72" width="11" height="11" rx="2" fill="#21262d"/><rect x="339" y="85" width="11" height="11" rx="2" fill="#0e4429"/><rect x="339" y="98" width="11" height="11" rx="2" fill="#0e4429"/><rect x="352" y="20" width="11" height="11" rx="2" fill="#26a641"/><rect x="352" y="33" width="11" height="11" rx="2" fill="#0e4429"/><rect x="352" y="46" width="11" height="11" rx="2" fill="#21262d"/><rect x="352" y="59" width="11" height="11" rx="2" fill="#21262d"/><rect x="352" y="72" width="11" height="11" rx="2" fill="#0e4429"/><rect x="352" y="85" width="11" height="11" rx="2" fill="#21262d"/><rect x="352" y="98" width="11" height="11" rx="2" fill="#006d32"/><rect x="365" y="20" width="11" height="11" rx="2" fill="#21262d"/><rect x="365" y="33" width="11" height="11" rx="2" fill="#21262d"/><rect x="365" y="46" width="11" height="11" rx="2" fill="#0e4429"/><rect x="365" y="59" width="11" height="11" rx="2" fill="#21262d"/><rect x="365" y="72" width="11" height="11" rx="2" fill="#006d32"/><rect x="365" y="85" width="11" height="11" rx="2" fill="#0e4429"/><rect x="365" y="98" width="11" height="11" rx="2" fill="#26a641"/><text x="378" y="14" font-family="Cinzel,serif" font-size="7" fill="#8b949e" letter-spacing="0.5">Feb</text><rect x="378" y="20" width="11" height="11" rx="2" fill="#39d353"/><rect x="378" y="33" width="11" height="11" rx="2" fill="#21262d"/><rect x="378" y="46" width="11" height="11" rx="2" fill="#26a641"/><rect x="378" y="59" width="11" height="11" rx="2" fill="#21262d"/><rect x="378" y="72" width="11" height="11" rx="2" fill="#26a641"/><rect x="378" y="85" width="11" height="11" rx="2" fill="#0e4429"/><rect x="378" y="98" width="11" height="11" rx="2" fill="#39d353"/><rect x="391" y="20" width="11" height="11" rx="2" fill="#21262d"/><rect x="391" y="33" width="11" height="11" rx="2" fill="#21262d"/><rect x="391" y="46" width="11" height="11" rx="2" fill="#26a641"/><rect x="391" y="59" width="11" height="11" rx="2" fill="#21262d"/><rect x="391" y="72" width="11" height="11" rx="2" fill="#39d353"/><rect x="391" y="85" width="11" height="11" rx="2" fill="#39d353"/><rect x="391" y="98" width="11" height="11" rx="2" fill="#0e4429"/><rect x="404" y="20" width="11" height="11" rx="2" fill="#21262d"/><rect x="404" y="33" width="11" height="11" rx="2" fill="#21262d"/><rect x="404" y="46" width="11" height="11" rx="2" fill="#006d32"/><rect x="404" y="59" width="11" height="11" rx="2" fill="#006d32"/><rect x="404" y="72" width="11" height="11" rx="2" fill="#21262d"/><rect x="404" y="85" width="11" height="11" rx="2" fill="#0e4429"/><rect x="404" y="98" width="11" height="11" rx="2" fill="#0e4429"/><rect x="417" y="20" width="11" height="11" rx="2" fill="#0e4429"/><rect x="417" y="33" width="11" height="11" rx="2" fill="#39d353"/><rect x="417" y="46" width="11" height="11" rx="2" fill="#26a641"/><rect x="417" y="59" width="11" height="11" rx="2" fill="#0e4429"/><rect x="417" y="72" width="11" height="11" rx="2" fill="#006d32"/><rect x="417" y="85" width="11" height="11" rx="2" fill="#26a641"/><rect x="417" y="98" width="11" height="11" rx="2" fill="#0e4429"/><text x="430" y="14" font-family="Cinzel,serif" font-size="7" fill="#8b949e" letter-spacing="0.5">Mar</text><rect x="430" y="20" width="11" height="11" rx="2" fill="#21262d"/><rect x="430" y="33" width="11" height="11" rx="2" fill="#26a641"/><rect x="430" y="46" width="11" height="11" rx="2" fill="#21262d"/><rect x="430" y="59" width="11" height="11" rx="2" fill="#0e4429"/><rect x="430" y="72" width="11" height="11" rx="2" fill="#21262d"/><rect x="430" y="85" width="11" height="11" rx="2" fill="#21262d"/><rect x="430" y="98" width="11" height="11" rx="2" fill="#0e4429"/><rect x="443" y="20" width="11" height="11" rx="2" fill="#0e4429"/><rect x="443" y="33" width="11" height="11" rx="2" fill="#39d353"/><rect x="443" y="46" width="11" height="11" rx="2" fill="#21262d"/><rect x="443" y="59" width="11" height="11" rx="2" fill="#21262d"/><rect x="443" y="72" width="11" height="11" rx="2" fill="#21262d"/><rect x="443" y="85" width="11" height="11" rx="2" fill="#0e4429"/><rect x="443" y="98" width="11" height="11" rx="2" fill="#006d32"/><rect x="456" y="20" width="11" height="11" rx="2" fill="#21262d"/><rect x="456" y="33" width="11" height="11" rx="2" fill="#21262d"/><rect x="456" y="46" width="11" height="11" rx="2" fill="#0e4429"/><rect x="456" y="59" width="11" height="11" rx="2" fill="#26a641"/><rect x="456" y="72" width="11" height="11" rx="2" fill="#006d32"/><rect x="456" y="85" width="11" height="11" rx="2" fill="#0e4429"/><rect x="456" y="98" width="11" height="11" rx="2" fill="#21262d"/><rect x="469" y="20" width="11" height="11" rx="2" fill="#0e4429"/><rect x="469" y="33" width="11" height="11" rx="2" fill="#21262d"/><rect x="469" y="46" width="11" height="11" rx="2" fill="#0e4429"/><rect x="469" y="59" width="11" height="11" rx="2" fill="#006d32"/><rect x="469" y="72" width="11" height="11" rx="2" fill="#21262d"/><rect x="469" y="85" width="11" height="11" rx="2" fill="#0e4429"/><rect x="469" y="98" width="11" height="11" rx="2" fill="#21262d"/><rect x="482" y="20" width="11" height="11" rx="2" fill="#26a641"/><rect x="482" y="33" width="11" height="11" rx="2" fill="#006d32"/><rect x="482" y="46" width="11" height="11" rx="2" fill="#0e4429"/><rect x="482" y="59" width="11" height="11" rx="2" fill="#0e4429"/><rect x="482" y="72" width="11" height="11" rx="2" fill="#21262d"/><rect x="482" y="85" width="11" height="11" rx="2" fill="#26a641"/><rect x="482" y="98" width="11" height="11" rx="2" fill="#006d32"/><text x="495" y="14" font-family="Cinzel,serif" font-size="7" fill="#8b949e" letter-spacing="0.5">Apr</text><rect x="495" y="20" width="11" height="11" rx="2" fill="#26a641"/><rect x="495" y="33" width="11" height="11" rx="2" fill="#39d353"/><rect x="495" y="46" width="11" height="11" rx="2" fill="#26a641"/><rect x="495" y="59" width="11" height="11" rx="2" fill="#21262d"/><rect x="495" y="72" width="11" height="11" rx="2" fill="#0e4429"/><rect x="495" y="85" width="11" height="11" rx="2" fill="#39d353"/><rect x="495" y="98" width="11" height="11" rx="2" fill="#21262d"/><rect x="508" y="20" width="11" height="11" rx="2" fill="#21262d"/><rect x="508" y="33" width="11" height="11" rx="2" fill="#21262d"/><rect x="508" y="46" width="11" height="11" rx="2" fill="#21262d"/><rect x="508" y="59" width="11" height="11" rx="2" fill="#21262d"/><rect x="508" y="72" width="11" height="11" rx="2" fill="#0e4429"/><rect x="508" y="85" width="11" height="11" rx="2" fill="#0e4429"/><rect x="508" y="98" width="11" height="11" rx="2" fill="#21262d"/><rect x="521" y="20" width="11" height="11" rx="2" fill="#21262d"/><rect x="521" y="33" width="11" height="11" rx="2" fill="#0e4429"/><rect x="521" y="46" width="11" height="11" rx="2" fill="#26a641"/><rect x="521" y="59" width="11" height="11" rx="2" fill="#0e4429"/><rect x="521" y="72" width="11" height="11" rx="2" fill="#21262d"/><rect x="521" y="85" width="11" height="11" rx="2" fill="#26a641"/><rect x="521" y="98" width="11" height="11" rx="2" fill="#0e4429"/><rect x="534" y="20" width="11" height="11" rx="2" fill="#39d353"/><rect x="534" y="33" width="11" height="11" rx="2" fill="#26a641"/><rect x="534" y="46" width="11" height="11" rx="2" fill="#39d353"/><rect x="534" y="59" width="11" height="11" rx="2" fill="#21262d"/><rect x="534" y="72" width="11" height="11" rx="2" fill="#21262d"/><rect x="534" y="85" width="11" height="11" rx="2" fill="#21262d"/><rect x="534" y="98" width="11" height="11" rx="2" fill="#006d32"/><text x="547" y="14" font-family="Cinzel,serif" font-size="7" fill="#8b949e" letter-spacing="0.5">May</text><rect x="547" y="20" width="11" height="11" rx="2" fill="#21262d"/><rect x="547" y="33" width="11" height="11" rx="2" fill="#26a641"/><rect x="547" y="46" width="11" height="11" rx="2" fill="#21262d"/><rect x="547" y="59" width="11" height="11" rx="2" fill="#39d353"/><rect x="547" y="72" width="11" height="11" rx="2" fill="#39d353"/><rect x="547" y="85" width="11" height="11" rx="2" fill="#26a641"/><rect x="547" y="98" width="11" height="11" rx="2" fill="#26a641"/><rect x="560" y="20" width="11" height="11" rx="2" fill="#26a641"/><rect x="560" y="33" width="11" height="11" rx="2" fill="#006d32"/><rect x="560" y="46" width="11" height="11" rx="2" fill="#21262d"/><rect x="560" y="59" width="11" height="11" rx="2" fill="#21262d"/><rect x="560" y="72" width="11" height="11" rx="2" fill="#39d353"/><rect x="560" y="85" width="11" height="11" rx="2" fill="#26a641"/><rect x="560" y="98" width="11" height="11" rx="2" fill="#21262d"/><rect x="573" y="20" width="11" height="11" rx="2" fill="#21262d"/><rect x="573" y="33" width="11" height="11" rx="2" fill="#21262d"/><rect x="573" y="46" width="11" height="11" rx="2" fill="#21262d"/><rect x="573" y="59" width="11" height="11" rx="2" fill="#21262d"/><rect x="573" y="72" width="11" height="11" rx="2" fill="#21262d"/><rect x="573" y="85" width="11" height="11" rx="2" fill="#006d32"/><rect x="573" y="98" width="11" height="11" rx="2" fill="#21262d"/><rect x="586" y="20" width="11" height="11" rx="2" fill="#21262d"/><rect x="586" y="33" width="11" height="11" rx="2" fill="#21262d"/><rect x="586" y="46" width="11" height="11" rx="2" fill="#39d353"/><rect x="586" y="59" width="11" height="11" rx="2" fill="#0e4429"/><rect x="586" y="72" width="11" height="11" rx="2" fill="#21262d"/><rect x="586" y="85" width="11" height="11" rx="2" fill="#0e4429"/><rect x="586" y="98" width="11" height="11" rx="2" fill="#006d32"/><text x="599" y="14" font-family="Cinzel,serif" font-size="7" fill="#8b949e" letter-spacing="0.5">Jun</text><rect x="599" y="20" width="11" height="11" rx="2" fill="#39d353"/><rect x="599" y="33" width="11" height="11" rx="2" fill="#0e4429"/><rect x="599" y="46" width="11" height="11" rx="2" fill="#0e4429"/><rect x="599" y="59" width="11" height="11" rx="2" fill="#26a641"/><rect x="599" y="72" width="11" height="11" rx="2" fill="#006d32"/><rect x="599" y="85" width="11" height="11" rx="2" fill="#0e4429"/><rect x="599" y="98" width="11" height="11" rx="2" fill="#0e4429"/><rect x="612" y="20" width="11" height="11" rx="2" fill="#0e4429"/><rect x="612" y="33" width="11" height="11" rx="2" fill="#21262d"/><rect x="612" y="46" width="11" height="11" rx="2" fill="#39d353"/><rect x="612" y="59" width="11" height="11" rx="2" fill="#21262d"/><rect x="612" y="72" width="11" height="11" rx="2" fill="#21262d"/><rect x="612" y="85" width="11" height="11" rx="2" fill="#21262d"/><rect x="612" y="98" width="11" height="11" rx="2" fill="#39d353"/><rect x="625" y="20" width="11" height="11" rx="2" fill="#21262d"/><rect x="625" y="33" width="11" height="11" rx="2" fill="#21262d"/><rect x="625" y="46" width="11" height="11" rx="2" fill="#0e4429"/><rect x="625" y="59" width="11" height="11" rx="2" fill="#26a641"/><rect x="625" y="72" width="11" height="11" rx="2" fill="#21262d"/><rect x="625" y="85" width="11" height="11" rx="2" fill="#21262d"/><rect x="625" y="98" width="11" height="11" rx="2" fill="#21262d"/>
</svg>