<svg xmlns="http://www.w3.org/2000/svg" width="680" height="260" viewBox="0 0 680 260">
  <defs><style>@import url('https://fonts.googleapis.com/css2?family=UnifrakturMaguntia&amp;family=IM+Fell+English:ital@0;1&amp;family=Cinzel:wght@400;700&amp;display=swap');</style></defs>
  <rect x="50" y="0" width="182" height="90" rx="3" fill="none" stroke="#30363d" stroke-width="0.8"/><text x="141" y="43" text-anchor="middle" font-family="UnifrakturMaguntia,serif" font-size="24" fill="#e6edf3">55</text><text x="141" y="63" text-anchor="middle" font-family="Cinzel,serif" font-size="8" fill="#8b949e" letter-spacing="2">SOLVED</text><rect x="248" y="0" width="182" height="90" rx="3" fill="none" stroke="#30363d" stroke-width="0.8"/><text x="339" y="43" text-anchor="middle" font-family="UnifrakturMaguntia,serif" font-size="24" fill="#e6edf3">42</text><text x="339" y="63" text-anchor="middle" font-family="Cinzel,serif" font-size="8" fill="#8b949e" letter-spacing="2">EASY</text><rect x="446" y="0" width="182" height="90" rx="3" fill="none" stroke="#30363d" stroke-width="0.8"/><text x="537" y="43" text-anchor="middle" font-family="UnifrakturMaguntia,serif" font-size="24" fill="#e6edf3">11</text><text x="537" y="63" text-anchor="middle" font-family="Cinzel,serif" font-size="8" fill="#8b949e" letter-spacing="2">MEDIUM</text>
  <text x="50" y="123" font-family="Cinzel,serif" font-size="8" fill="#8b949e" letter-spacing="1">ARRAY</text><rect x="170" y="117" width="290" height="3" rx="1" fill="#21262d"/><rect x="170" y="117" width="290" height="3" rx="1" fill="#8b949e" opacity="0.6"/><text x="470" y="123" font-family="Cinzel,serif" font-size="8" fill="#8b949e">20</text><text x="50" y="151" font-family="Cinzel,serif" font-size="8" fill="#8b949e" letter-spacing="1">MATH</text><rect x="170" y="145" width="290" height="3" rx="1" fill="#21262d"/><rect x="170" y="145" width="261" height="3" rx="1" fill="#8b949e" opacity="0.6"/><text x="470" y="151" font-family="Cinzel,serif" font-size="8" fill="#8b949e">18</text><text x="50" y="179" font-family="Cinzel,serif" font-size="8" fill="#8b949e" letter-spacing="1">STRING</text><rect x="170" y="173" width="290" height="3" rx="1" fill="#21262d"/><rect x="170" y="173" width="246" height="3" rx="1" fill="#8b949e" opacity="0.6"/><text x="470" y="179" font-family="Cinzel,serif" font-size="8" fill="#8b949e">17</text><text x="50" y="207" font-family="Cinzel,serif" font-size="8" fill="#8b949e" letter-spacing="1">HASH TABLE</text><rect x="170" y="201" width="290" height="3" rx="1" fill="#21262d"/><rect x="170" y="201" width="188" height="3" rx="1" fill="#8b949e" opacity="0.6"/><text x="470" y="207" font-family="Cinzel,serif" font-size="8" fill="#8b949e">13</text><text x="50" y="235" font-family="Cinzel,serif" font-size="8" fill="#8b949e" letter-spacing="1">TWO POINTERS</text><rect x="170" y="229" width="290" height="3" rx="1" fill="#21262d"/><rect x="170" y="229" width="159" height="3" rx="1" fill="#8b949e" opacity="0.6"/><text x="470" y="235" font-family="Cinzel,serif" font-size="8" fill="#8b949e">11</text>
</svg>