<svg xmlns="http://www.w3.org/2000/svg" width="680" height="790" viewBox="0 0 680 790">
  <defs>
    <style>
      @import url('https://fonts.googleapis.com/css2?family=UnifrakturMaguntia&amp;family=IM+Fell+English:ital@0;1&amp;family=Cinzel:wght@400;700&amp;display=swap');
    </style>
  </defs>

  <!-- Background -->
  <rect width="680" height="790" fill="#0d1117"/>

  <!-- Outer border -->
  <rect x="16" y="16" width="648" height="758" fill="none" stroke="#30363d" stroke-width="1"/>

  <!-- Corner brackets -->
  <polyline points="20,20 20,34" stroke="#c9d1d9" stroke-width="1.5" opacity="0.5" fill="none"/><polyline points="20,20 34,20" stroke="#c9d1d9" stroke-width="1.5" opacity="0.5" fill="none"/><polyline points="660,20 660,34" stroke="#c9d1d9" stroke-width="1.5" opacity="0.5" fill="none"/><polyline points="660,20 646,20" stroke="#c9d1d9" stroke-width="1.5" opacity="0.5" fill="none"/><polyline points="20,770 20,756" stroke="#c9d1d9" stroke-width="1.5" opacity="0.5" fill="none"/><polyline points="20,770 34,770" stroke="#c9d1d9" stroke-width="1.5" opacity="0.5" fill="none"/><polyline points="660,770 660,756" stroke="#c9d1d9" stroke-width="1.5" opacity="0.5" fill="none"/><polyline points="660,770 646,770" stroke="#c9d1d9" stroke-width="1.5" opacity="0.5" fill="none"/>

  <!-- Crows -->
  <path d="M310 52 C314 46 320 45 323 47 C324 45 327 44 330 45 C333 43 336 44 335 47 C333 48 331 47 330 48 C328 50 325 52 321 51 C319 52 316 52 310 52Z" fill="#c9d1d9" opacity="0.65"/><path d="M309 51 C308 50 309 49 311 50" stroke="#c9d1d9" stroke-width="0.8" opacity="0.5"/>
  <path d="M350 50 C354 45 359 44 362 46 C363 44 365 43 368 44 C370 42 373 43 372 46 C370 47 368 46 367 47 C365 49 362 51 359 50 C357 51 354 51 350 50Z" fill="#c9d1d9" opacity="0.5"/>

  <!-- Title -->
  <text x="340" y="100" text-anchor="middle" font-family="UnifrakturMaguntia, serif" font-size="52" fill="#e6edf3" letter-spacing="2">Axel</text>
  <text x="340" y="126" text-anchor="middle" font-family="IM Fell English, serif" font-style="italic" font-size="14" fill="#8b949e" letter-spacing="2">[æk.səl]</text>
  <text x="340" y="146" text-anchor="middle" font-family="IM Fell English, serif" font-style="italic" font-size="12" fill="#8b949e" opacity="0.75">he/him · Junior C &amp; Python Dev</text>

  <!-- Shields -->
  <rect x="78" y="178" width="59" height="20" rx="2" fill="none" stroke="#30363d" stroke-width="0.5"/><text x="86" y="192" font-family="Cinzel, serif" font-size="7.5" fill="#8b949e" letter-spacing="1.5">⚔ LINUX</text><rect x="147" y="178" width="66" height="20" rx="2" fill="none" stroke="#30363d" stroke-width="0.5"/><text x="155" y="192" font-family="Cinzel, serif" font-size="7.5" fill="#8b949e" letter-spacing="1.5">⚔ NEOVIM</text><rect x="223" y="178" width="31" height="20" rx="2" fill="none" stroke="#30363d" stroke-width="0.5"/><text x="231" y="192" font-family="Cinzel, serif" font-size="7.5" fill="#8b949e" letter-spacing="1.5">⚔ C</text><rect x="264" y="178" width="66" height="20" rx="2" fill="none" stroke="#30363d" stroke-width="0.5"/><text x="272" y="192" font-family="Cinzel, serif" font-size="7.5" fill="#8b949e" letter-spacing="1.5">⚔ PYTHON</text><rect x="340" y="178" width="45" height="20" rx="2" fill="none" stroke="#30363d" stroke-width="0.5"/><text x="348" y="192" font-family="Cinzel, serif" font-size="7.5" fill="#8b949e" letter-spacing="1.5">⚔ GIT</text><rect x="395" y="178" width="80" height="20" rx="2" fill="none" stroke="#30363d" stroke-width="0.5"/><text x="403" y="192" font-family="Cinzel, serif" font-size="7.5" fill="#8b949e" letter-spacing="1.5">⚔ ÉCOLE 42</text>

  <!-- Divider 1 -->
  <line x1="40" y1="212" x2="640" y2="212" stroke="#30363d" stroke-width="0.5"/><text x="340" y="216" text-anchor="middle" font-family="serif" font-size="10" fill="#8b949e" letter-spacing="4">✦  ✦  ✦</text><line x1="40" y1="220" x2="640" y2="220" stroke="#30363d" stroke-width="0.5"/>

  <!-- About -->
  <text x="40" y="244" font-family="Cinzel, serif" font-size="9" fill="#8b949e" letter-spacing="3">ABOUT</text><line x1="96" y1="241" x2="640" y2="241" stroke="#30363d" stroke-width="0.5"/>
  <text x="40" y="264" font-family="IM Fell English, serif" font-size="13" fill="#c9d1d9">Student at <tspan font-weight="bold" fill="#e6edf3">École 42</tspan> — learning through projects, ego, and pain.</text>
  <text x="40" y="282" font-family="IM Fell English, serif" font-size="13" fill="#c9d1d9">Building things in C from scratch. Occasionally writing Python when I want to feel productive.</text>
  <text x="40" y="300" font-family="IM Fell English, serif" font-size="13" fill="#c9d1d9">Algorithms enthusiast. Linux native. Living in the terminal. I use NeoVim btw.</text>

  <!-- GitHub -->
  <text x="40" y="340" font-family="Cinzel, serif" font-size="9" fill="#8b949e" letter-spacing="3">GITHUB</text><line x1="104" y1="337" x2="640" y2="337" stroke="#30363d" stroke-width="0.5"/>
  <rect x="40" y="280" width="130" height="52" rx="2" fill="none" stroke="#30363d" stroke-width="0.5"/><text x="105" y="302" text-anchor="middle" font-family="UnifrakturMaguntia, serif" font-size="22" fill="#e6edf3">12</text><text x="105" y="320" text-anchor="middle" font-family="Cinzel, serif" font-size="7" fill="#8b949e" letter-spacing="1.5">REPOS</text><rect x="182" y="280" width="130" height="52" rx="2" fill="none" stroke="#30363d" stroke-width="0.5"/><text x="247" y="302" text-anchor="middle" font-family="UnifrakturMaguntia, serif" font-size="22" fill="#e6edf3">9</text><text x="247" y="320" text-anchor="middle" font-family="Cinzel, serif" font-size="7" fill="#8b949e" letter-spacing="1.5">FOLLOWERS</text><rect x="324" y="280" width="130" height="52" rx="2" fill="none" stroke="#30363d" stroke-width="0.5"/><text x="389" y="302" text-anchor="middle" font-family="UnifrakturMaguntia, serif" font-size="22" fill="#e6edf3">0</text><text x="389" y="320" text-anchor="middle" font-family="Cinzel, serif" font-size="7" fill="#8b949e" letter-spacing="1.5">STARS</text><rect x="466" y="280" width="130" height="52" rx="2" fill="none" stroke="#30363d" stroke-width="0.5"/><text x="531" y="302" text-anchor="middle" font-family="UnifrakturMaguntia, serif" font-size="22" fill="#e6edf3">194</text><text x="531" y="320" text-anchor="middle" font-family="Cinzel, serif" font-size="7" fill="#8b949e" letter-spacing="1.5">CONTRIBUTIONS</text>

  <!-- Contributions -->
  <text x="40" y="374" font-family="Cinzel, serif" font-size="9" fill="#8b949e" letter-spacing="3">CONTRIBUTIONS</text><line x1="160" y1="371" x2="640" y2="371" stroke="#30363d" stroke-width="0.5"/>
  <text x="40" y="388" font-family="Cinzel, serif" font-size="7" fill="#8b949e" letter-spacing="0.5">Jun</text>
<text x="53" y="388" font-family="Cinzel, serif" font-size="7" fill="#8b949e" letter-spacing="0.5">Jul</text>
<text x="105" y="388" font-family="Cinzel, serif" font-size="7" fill="#8b949e" letter-spacing="0.5">Aug</text>
<text x="170" y="388" font-family="Cinzel, serif" font-size="7" fill="#8b949e" letter-spacing="0.5">Sep</text>
<text x="222" y="388" font-family="Cinzel, serif" font-size="7" fill="#8b949e" letter-spacing="0.5">Oct</text>
<text x="274" y="388" font-family="Cinzel, serif" font-size="7" fill="#8b949e" letter-spacing="0.5">Nov</text>
<text x="339" y="388" font-family="Cinzel, serif" font-size="7" fill="#8b949e" letter-spacing="0.5">Dec</text>
<text x="391" y="388" font-family="Cinzel, serif" font-size="7" fill="#8b949e" letter-spacing="0.5">Jan</text>
<text x="443" y="388" font-family="Cinzel, serif" font-size="7" fill="#8b949e" letter-spacing="0.5">Feb</text>
<text x="495" y="388" font-family="Cinzel, serif" font-size="7" fill="#8b949e" letter-spacing="0.5">Mar</text>
<text x="560" y="388" font-family="Cinzel, serif" font-size="7" fill="#8b949e" letter-spacing="0.5">Apr</text>
<text x="612" y="388" font-family="Cinzel, serif" font-size="7" fill="#8b949e" letter-spacing="0.5">May</text>
<text x="677" y="388" font-family="Cinzel, serif" font-size="7" fill="#8b949e" letter-spacing="0.5">Jun</text>
<rect x="40" y="394" width="11" height="11" rx="2" fill="#161b22"/>
<rect x="40" y="407" width="11" height="11" rx="2" fill="#161b22"/>
<rect x="40" y="420" width="11" height="11" rx="2" fill="#161b22"/>
<rect x="40" y="433" width="11" height="11" rx="2" fill="#161b22"/>
<rect x="40" y="446" width="11" height="11" rx="2" fill="#161b22"/>
<rect x="40" y="459" width="11" height="11" rx="2" fill="#161b22"/>
<rect x="40" y="472" width="11" height="11" rx="2" fill="#161b22"/>
<rect x="53" y="394" width="11" height="11" rx="2" fill="#161b22"/>
<rect x="53" y="407" width="11" height="11" rx="2" fill="#161b22"/>
<rect x="53" y="420" width="11" height="11" rx="2" fill="#161b22"/>
<rect x="53" y="433" width="11" height="11" rx="2" fill="#161b22"/>
<rect x="53" y="446" width="11" height="11" rx="2" fill="#161b22"/>
<rect x="53" y="459" width="11" height="11" rx="2" fill="#161b22"/>
<rect x="53" y="472" width="11" height="11" rx="2" fill="#161b22"/>
<rect x="66" y="394" width="11" height="11" rx="2" fill="#161b22"/>
<rect x="66" y="407" width="11" height="11" rx="2" fill="#161b22"/>
<rect x="66" y="420" width="11" height="11" rx="2" fill="#161b22"/>
<rect x="66" y="433" width="11" height="11" rx="2" fill="#161b22"/>
<rect x="66" y="446" width="11" height="11" rx="2" fill="#161b22"/>
<rect x="66" y="459" width="11" height="11" rx="2" fill="#161b22"/>
<rect x="66" y="472" width="11" height="11" rx="2" fill="#161b22"/>
<rect x="79" y="394" width="11" height="11" rx="2" fill="#161b22"/>
<rect x="79" y="407" width="11" height="11" rx="2" fill="#161b22"/>
<rect x="79" y="420" width="11" height="11" rx="2" fill="#161b22"/>
<rect x="79" y="433" width="11" height="11" rx="2" fill="#161b22"/>
<rect x="79" y="446" width="11" height="11" rx="2" fill="#161b22"/>
<rect x="79" y="459" width="11" height="11" rx="2" fill="#161b22"/>
<rect x="79" y="472" width="11" height="11" rx="2" fill="#161b22"/>
<rect x="92" y="394" width="11" height="11" rx="2" fill="#161b22"/>
<rect x="92" y="407" width="11" height="11" rx="2" fill="#161b22"/>
<rect x="92" y="420" width="11" height="11" rx="2" fill="#161b22"/>
<rect x="92" y="433" width="11" height="11" rx="2" fill="#161b22"/>
<rect x="92" y="446" width="11" height="11" rx="2" fill="#161b22"/>
<rect x="92" y="459" width="11" height="11" rx="2" fill="#161b22"/>
<rect x="92" y="472" width="11" height="11" rx="2" fill="#161b22"/>
<rect x="105" y="394" width="11" height="11" rx="2" fill="#161b22"/>
<rect x="105" y="407" width="11" height="11" rx="2" fill="#161b22"/>
<rect x="105" y="420" width="11" height="11" rx="2" fill="#161b22"/>
<rect x="105" y="433" width="11" height="11" rx="2" fill="#161b22"/>
<rect x="105" y="446" width="11" height="11" rx="2" fill="#161b22"/>
<rect x="105" y="459" width="11" height="11" rx="2" fill="#161b22"/>
<rect x="105" y="472" width="11" height="11" rx="2" fill="#161b22"/>
<rect x="118" y="394" width="11" height="11" rx="2" fill="#161b22"/>
<rect x="118" y="407" width="11" height="11" rx="2" fill="#161b22"/>
<rect x="118" y="420" width="11" height="11" rx="2" fill="#161b22"/>
<rect x="118" y="433" width="11" height="11" rx="2" fill="#161b22"/>
<rect x="118" y="446" width="11" height="11" rx="2" fill="#161b22"/>
<rect x="118" y="459" width="11" height="11" rx="2" fill="#161b22"/>
<rect x="118" y="472" width="11" height="11" rx="2" fill="#161b22"/>
<rect x="131" y="394" width="11" height="11" rx="2" fill="#161b22"/>
<rect x="131" y="407" width="11" height="11" rx="2" fill="#161b22"/>
<rect x="131" y="420" width="11" height="11" rx="2" fill="#161b22"/>
<rect x="131" y="433" width="11" height="11" rx="2" fill="#161b22"/>
<rect x="131" y="446" width="11" height="11" rx="2" fill="#161b22"/>
<rect x="131" y="459" width="11" height="11" rx="2" fill="#161b22"/>
<rect x="131" y="472" width="11" height="11" rx="2" fill="#161b22"/>
<rect x="144" y="394" width="11" height="11" rx="2" fill="#161b22"/>
<rect x="144" y="407" width="11" height="11" rx="2" fill="#161b22"/>
<rect x="144" y="420" width="11" height="11" rx="2" fill="#161b22"/>
<rect x="144" y="433" width="11" height="11" rx="2" fill="#161b22"/>
<rect x="144" y="446" width="11" height="11" rx="2" fill="#161b22"/>
<rect x="144" y="459" width="11" height="11" rx="2" fill="#161b22"/>
<rect x="144" y="472" width="11" height="11" rx="2" fill="#161b22"/>
<rect x="157" y="394" width="11" height="11" rx="2" fill="#161b22"/>
<rect x="157" y="407" width="11" height="11" rx="2" fill="#161b22"/>
<rect x="157" y="420" width="11" height="11" rx="2" fill="#161b22"/>
<rect x="157" y="433" width="11" height="11" rx="2" fill="#161b22"/>
<rect x="157" y="446" width="11" height="11" rx="2" fill="#161b22"/>
<rect x="157" y="459" width="11" height="11" rx="2" fill="#161b22"/>
<rect x="157" y="472" width="11" height="11" rx="2" fill="#0e4429"/>
<rect x="170" y="394" width="11" height="11" rx="2" fill="#161b22"/>
<rect x="170" y="407" width="11" height="11" rx="2" fill="#161b22"/>
<rect x="170" y="420" width="11" height="11" rx="2" fill="#161b22"/>
<rect x="170" y="433" width="11" height="11" rx="2" fill="#161b22"/>
<rect x="170" y="446" width="11" height="11" rx="2" fill="#161b22"/>
<rect x="170" y="459" width="11" height="11" rx="2" fill="#161b22"/>
<rect x="170" y="472" width="11" height="11" rx="2" fill="#161b22"/>
<rect x="183" y="394" width="11" height="11" rx="2" fill="#161b22"/>
<rect x="183" y="407" width="11" height="11" rx="2" fill="#161b22"/>
<rect x="183" y="420" width="11" height="11" rx="2" fill="#161b22"/>
<rect x="183" y="433" width="11" height="11" rx="2" fill="#161b22"/>
<rect x="183" y="446" width="11" height="11" rx="2" fill="#161b22"/>
<rect x="183" y="459" width="11" height="11" rx="2" fill="#161b22"/>
<rect x="183" y="472" width="11" height="11" rx="2" fill="#161b22"/>
<rect x="196" y="394" width="11" height="11" rx="2" fill="#161b22"/>
<rect x="196" y="407" width="11" height="11" rx="2" fill="#161b22"/>
<rect x="196" y="420" width="11" height="11" rx="2" fill="#161b22"/>
<rect x="196" y="433" width="11" height="11" rx="2" fill="#161b22"/>
<rect x="196" y="446" width="11" height="11" rx="2" fill="#161b22"/>
<rect x="196" y="459" width="11" height="11" rx="2" fill="#161b22"/>
<rect x="196" y="472" width="11" height="11" rx="2" fill="#161b22"/>
<rect x="209" y="394" width="11" height="11" rx="2" fill="#161b22"/>
<rect x="209" y="407" width="11" height="11" rx="2" fill="#161b22"/>
<rect x="209" y="420" width="11" height="11" rx="2" fill="#161b22"/>
<rect x="209" y="433" width="11" height="11" rx="2" fill="#161b22"/>
<rect x="209" y="446" width="11" height="11" rx="2" fill="#161b22"/>
<rect x="209" y="459" width="11" height="11" rx="2" fill="#161b22"/>
<rect x="209" y="472" width="11" height="11" rx="2" fill="#161b22"/>
<rect x="222" y="394" width="11" height="11" rx="2" fill="#161b22"/>
<rect x="222" y="407" width="11" height="11" rx="2" fill="#161b22"/>
<rect x="222" y="420" width="11" height="11" rx="2" fill="#161b22"/>
<rect x="222" y="433" width="11" height="11" rx="2" fill="#161b22"/>
<rect x="222" y="446" width="11" height="11" rx="2" fill="#161b22"/>
<rect x="222" y="459" width="11" height="11" rx="2" fill="#161b22"/>
<rect x="222" y="472" width="11" height="11" rx="2" fill="#161b22"/>
<rect x="235" y="394" width="11" height="11" rx="2" fill="#161b22"/>
<rect x="235" y="407" width="11" height="11" rx="2" fill="#161b22"/>
<rect x="235" y="420" width="11" height="11" rx="2" fill="#161b22"/>
<rect x="235" y="433" width="11" height="11" rx="2" fill="#161b22"/>
<rect x="235" y="446" width="11" height="11" rx="2" fill="#161b22"/>
<rect x="235" y="459" width="11" height="11" rx="2" fill="#161b22"/>
<rect x="235" y="472" width="11" height="11" rx="2" fill="#161b22"/>
<rect x="248" y="394" width="11" height="11" rx="2" fill="#161b22"/>
<rect x="248" y="407" width="11" height="11" rx="2" fill="#161b22"/>
<rect x="248" y="420" width="11" height="11" rx="2" fill="#161b22"/>
<rect x="248" y="433" width="11" height="11" rx="2" fill="#161b22"/>
<rect x="248" y="446" width="11" height="11" rx="2" fill="#161b22"/>
<rect x="248" y="459" width="11" height="11" rx="2" fill="#161b22"/>
<rect x="248" y="472" width="11" height="11" rx="2" fill="#161b22"/>
<rect x="261" y="394" width="11" height="11" rx="2" fill="#161b22"/>
<rect x="261" y="407" width="11" height="11" rx="2" fill="#161b22"/>
<rect x="261" y="420" width="11" height="11" rx="2" fill="#161b22"/>
<rect x="261" y="433" width="11" height="11" rx="2" fill="#161b22"/>
<rect x="261" y="446" width="11" height="11" rx="2" fill="#161b22"/>
<rect x="261" y="459" width="11" height="11" rx="2" fill="#161b22"/>
<rect x="261" y="472" width="11" height="11" rx="2" fill="#161b22"/>
<rect x="274" y="394" width="11" height="11" rx="2" fill="#161b22"/>
<rect x="274" y="407" width="11" height="11" rx="2" fill="#161b22"/>
<rect x="274" y="420" width="11" height="11" rx="2" fill="#161b22"/>
<rect x="274" y="433" width="11" height="11" rx="2" fill="#161b22"/>
<rect x="274" y="446" width="11" height="11" rx="2" fill="#161b22"/>
<rect x="274" y="459" width="11" height="11" rx="2" fill="#161b22"/>
<rect x="274" y="472" width="11" height="11" rx="2" fill="#161b22"/>
<rect x="287" y="394" width="11" height="11" rx="2" fill="#161b22"/>
<rect x="287" y="407" width="11" height="11" rx="2" fill="#161b22"/>
<rect x="287" y="420" width="11" height="11" rx="2" fill="#161b22"/>
<rect x="287" y="433" width="11" height="11" rx="2" fill="#161b22"/>
<rect x="287" y="446" width="11" height="11" rx="2" fill="#161b22"/>
<rect x="287" y="459" width="11" height="11" rx="2" fill="#161b22"/>
<rect x="287" y="472" width="11" height="11" rx="2" fill="#161b22"/>
<rect x="300" y="394" width="11" height="11" rx="2" fill="#161b22"/>
<rect x="300" y="407" width="11" height="11" rx="2" fill="#161b22"/>
<rect x="300" y="420" width="11" height="11" rx="2" fill="#161b22"/>
<rect x="300" y="433" width="11" height="11" rx="2" fill="#161b22"/>
<rect x="300" y="446" width="11" height="11" rx="2" fill="#161b22"/>
<rect x="300" y="459" width="11" height="11" rx="2" fill="#161b22"/>
<rect x="300" y="472" width="11" height="11" rx="2" fill="#161b22"/>
<rect x="313" y="394" width="11" height="11" rx="2" fill="#161b22"/>
<rect x="313" y="407" width="11" height="11" rx="2" fill="#161b22"/>
<rect x="313" y="420" width="11" height="11" rx="2" fill="#161b22"/>
<rect x="313" y="433" width="11" height="11" rx="2" fill="#161b22"/>
<rect x="313" y="446" width="11" height="11" rx="2" fill="#161b22"/>
<rect x="313" y="459" width="11" height="11" rx="2" fill="#161b22"/>
<rect x="313" y="472" width="11" height="11" rx="2" fill="#161b22"/>
<rect x="326" y="394" width="11" height="11" rx="2" fill="#161b22"/>
<rect x="326" y="407" width="11" height="11" rx="2" fill="#161b22"/>
<rect x="326" y="420" width="11" height="11" rx="2" fill="#161b22"/>
<rect x="326" y="433" width="11" height="11" rx="2" fill="#161b22"/>
<rect x="326" y="446" width="11" height="11" rx="2" fill="#161b22"/>
<rect x="326" y="459" width="11" height="11" rx="2" fill="#161b22"/>
<rect x="326" y="472" width="11" height="11" rx="2" fill="#161b22"/>
<rect x="339" y="394" width="11" height="11" rx="2" fill="#161b22"/>
<rect x="339" y="407" width="11" height="11" rx="2" fill="#161b22"/>
<rect x="339" y="420" width="11" height="11" rx="2" fill="#161b22"/>
<rect x="339" y="433" width="11" height="11" rx="2" fill="#161b22"/>
<rect x="339" y="446" width="11" height="11" rx="2" fill="#161b22"/>
<rect x="339" y="459" width="11" height="11" rx="2" fill="#161b22"/>
<rect x="339" y="472" width="11" height="11" rx="2" fill="#161b22"/>
<rect x="352" y="394" width="11" height="11" rx="2" fill="#161b22"/>
<rect x="352" y="407" width="11" height="11" rx="2" fill="#161b22"/>
<rect x="352" y="420" width="11" height="11" rx="2" fill="#161b22"/>
<rect x="352" y="433" width="11" height="11" rx="2" fill="#161b22"/>
<rect x="352" y="446" width="11" height="11" rx="2" fill="#161b22"/>
<rect x="352" y="459" width="11" height="11" rx="2" fill="#161b22"/>
<rect x="352" y="472" width="11" height="11" rx="2" fill="#161b22"/>
<rect x="365" y="394" width="11" height="11" rx="2" fill="#161b22"/>
<rect x="365" y="407" width="11" height="11" rx="2" fill="#161b22"/>
<rect x="365" y="420" width="11" height="11" rx="2" fill="#161b22"/>
<rect x="365" y="433" width="11" height="11" rx="2" fill="#161b22"/>
<rect x="365" y="446" width="11" height="11" rx="2" fill="#161b22"/>
<rect x="365" y="459" width="11" height="11" rx="2" fill="#161b22"/>
<rect x="365" y="472" width="11" height="11" rx="2" fill="#161b22"/>
<rect x="378" y="394" width="11" height="11" rx="2" fill="#161b22"/>
<rect x="378" y="407" width="11" height="11" rx="2" fill="#161b22"/>
<rect x="378" y="420" width="11" height="11" rx="2" fill="#161b22"/>
<rect x="378" y="433" width="11" height="11" rx="2" fill="#161b22"/>
<rect x="378" y="446" width="11" height="11" rx="2" fill="#161b22"/>
<rect x="378" y="459" width="11" height="11" rx="2" fill="#161b22"/>
<rect x="378" y="472" width="11" height="11" rx="2" fill="#161b22"/>
<rect x="391" y="394" width="11" height="11" rx="2" fill="#161b22"/>
<rect x="391" y="407" width="11" height="11" rx="2" fill="#161b22"/>
<rect x="391" y="420" width="11" height="11" rx="2" fill="#161b22"/>
<rect x="391" y="433" width="11" height="11" rx="2" fill="#161b22"/>
<rect x="391" y="446" width="11" height="11" rx="2" fill="#161b22"/>
<rect x="391" y="459" width="11" height="11" rx="2" fill="#161b22"/>
<rect x="391" y="472" width="11" height="11" rx="2" fill="#161b22"/>
<rect x="404" y="394" width="11" height="11" rx="2" fill="#161b22"/>
<rect x="404" y="407" width="11" height="11" rx="2" fill="#161b22"/>
<rect x="404" y="420" width="11" height="11" rx="2" fill="#161b22"/>
<rect x="404" y="433" width="11" height="11" rx="2" fill="#161b22"/>
<rect x="404" y="446" width="11" height="11" rx="2" fill="#161b22"/>
<rect x="404" y="459" width="11" height="11" rx="2" fill="#161b22"/>
<rect x="404" y="472" width="11" height="11" rx="2" fill="#161b22"/>
<rect x="417" y="394" width="11" height="11" rx="2" fill="#161b22"/>
<rect x="417" y="407" width="11" height="11" rx="2" fill="#161b22"/>
<rect x="417" y="420" width="11" height="11" rx="2" fill="#161b22"/>
<rect x="417" y="433" width="11" height="11" rx="2" fill="#161b22"/>
<rect x="417" y="446" width="11" height="11" rx="2" fill="#161b22"/>
<rect x="417" y="459" width="11" height="11" rx="2" fill="#161b22"/>
<rect x="417" y="472" width="11" height="11" rx="2" fill="#161b22"/>
<rect x="430" y="394" width="11" height="11" rx="2" fill="#161b22"/>
<rect x="430" y="407" width="11" height="11" rx="2" fill="#161b22"/>
<rect x="430" y="420" width="11" height="11" rx="2" fill="#161b22"/>
<rect x="430" y="433" width="11" height="11" rx="2" fill="#161b22"/>
<rect x="430" y="446" width="11" height="11" rx="2" fill="#161b22"/>
<rect x="430" y="459" width="11" height="11" rx="2" fill="#161b22"/>
<rect x="430" y="472" width="11" height="11" rx="2" fill="#161b22"/>
<rect x="443" y="394" width="11" height="11" rx="2" fill="#161b22"/>
<rect x="443" y="407" width="11" height="11" rx="2" fill="#161b22"/>
<rect x="443" y="420" width="11" height="11" rx="2" fill="#0e4429"/>
<rect x="443" y="433" width="11" height="11" rx="2" fill="#161b22"/>
<rect x="443" y="446" width="11" height="11" rx="2" fill="#161b22"/>
<rect x="443" y="459" width="11" height="11" rx="2" fill="#161b22"/>
<rect x="443" y="472" width="11" height="11" rx="2" fill="#161b22"/>
<rect x="456" y="394" width="11" height="11" rx="2" fill="#161b22"/>
<rect x="456" y="407" width="11" height="11" rx="2" fill="#161b22"/>
<rect x="456" y="420" width="11" height="11" rx="2" fill="#161b22"/>
<rect x="456" y="433" width="11" height="11" rx="2" fill="#161b22"/>
<rect x="456" y="446" width="11" height="11" rx="2" fill="#161b22"/>
<rect x="456" y="459" width="11" height="11" rx="2" fill="#161b22"/>
<rect x="456" y="472" width="11" height="11" rx="2" fill="#161b22"/>
<rect x="469" y="394" width="11" height="11" rx="2" fill="#161b22"/>
<rect x="469" y="407" width="11" height="11" rx="2" fill="#161b22"/>
<rect x="469" y="420" width="11" height="11" rx="2" fill="#161b22"/>
<rect x="469" y="433" width="11" height="11" rx="2" fill="#161b22"/>
<rect x="469" y="446" width="11" height="11" rx="2" fill="#161b22"/>
<rect x="469" y="459" width="11" height="11" rx="2" fill="#161b22"/>
<rect x="469" y="472" width="11" height="11" rx="2" fill="#161b22"/>
<rect x="482" y="394" width="11" height="11" rx="2" fill="#161b22"/>
<rect x="482" y="407" width="11" height="11" rx="2" fill="#161b22"/>
<rect x="482" y="420" width="11" height="11" rx="2" fill="#161b22"/>
<rect x="482" y="433" width="11" height="11" rx="2" fill="#161b22"/>
<rect x="482" y="446" width="11" height="11" rx="2" fill="#161b22"/>
<rect x="482" y="459" width="11" height="11" rx="2" fill="#161b22"/>
<rect x="482" y="472" width="11" height="11" rx="2" fill="#161b22"/>
<rect x="495" y="394" width="11" height="11" rx="2" fill="#161b22"/>
<rect x="495" y="407" width="11" height="11" rx="2" fill="#161b22"/>
<rect x="495" y="420" width="11" height="11" rx="2" fill="#161b22"/>
<rect x="495" y="433" width="11" height="11" rx="2" fill="#161b22"/>
<rect x="495" y="446" width="11" height="11" rx="2" fill="#161b22"/>
<rect x="495" y="459" width="11" height="11" rx="2" fill="#161b22"/>
<rect x="495" y="472" width="11" height="11" rx="2" fill="#161b22"/>
<rect x="508" y="394" width="11" height="11" rx="2" fill="#161b22"/>
<rect x="508" y="407" width="11" height="11" rx="2" fill="#161b22"/>
<rect x="508" y="420" width="11" height="11" rx="2" fill="#161b22"/>
<rect x="508" y="433" width="11" height="11" rx="2" fill="#161b22"/>
<rect x="508" y="446" width="11" height="11" rx="2" fill="#26a641"/>
<rect x="508" y="459" width="11" height="11" rx="2" fill="#0e4429"/>
<rect x="508" y="472" width="11" height="11" rx="2" fill="#161b22"/>
<rect x="521" y="394" width="11" height="11" rx="2" fill="#161b22"/>
<rect x="521" y="407" width="11" height="11" rx="2" fill="#161b22"/>
<rect x="521" y="420" width="11" height="11" rx="2" fill="#0e4429"/>
<rect x="521" y="433" width="11" height="11" rx="2" fill="#0e4429"/>
<rect x="521" y="446" width="11" height="11" rx="2" fill="#161b22"/>
<rect x="521" y="459" width="11" height="11" rx="2" fill="#161b22"/>
<rect x="521" y="472" width="11" height="11" rx="2" fill="#161b22"/>
<rect x="534" y="394" width="11" height="11" rx="2" fill="#161b22"/>
<rect x="534" y="407" width="11" height="11" rx="2" fill="#161b22"/>
<rect x="534" y="420" width="11" height="11" rx="2" fill="#161b22"/>
<rect x="534" y="433" width="11" height="11" rx="2" fill="#0e4429"/>
<rect x="534" y="446" width="11" height="11" rx="2" fill="#0e4429"/>
<rect x="534" y="459" width="11" height="11" rx="2" fill="#161b22"/>
<rect x="534" y="472" width="11" height="11" rx="2" fill="#161b22"/>
<rect x="547" y="394" width="11" height="11" rx="2" fill="#006d32"/>
<rect x="547" y="407" width="11" height="11" rx="2" fill="#0e4429"/>
<rect x="547" y="420" width="11" height="11" rx="2" fill="#161b22"/>
<rect x="547" y="433" width="11" height="11" rx="2" fill="#161b22"/>
<rect x="547" y="446" width="11" height="11" rx="2" fill="#161b22"/>
<rect x="547" y="459" width="11" height="11" rx="2" fill="#161b22"/>
<rect x="547" y="472" width="11" height="11" rx="2" fill="#0e4429"/>
<rect x="560" y="394" width="11" height="11" rx="2" fill="#0e4429"/>
<rect x="560" y="407" width="11" height="11" rx="2" fill="#0e4429"/>
<rect x="560" y="420" width="11" height="11" rx="2" fill="#0e4429"/>
<rect x="560" y="433" width="11" height="11" rx="2" fill="#0e4429"/>
<rect x="560" y="446" width="11" height="11" rx="2" fill="#161b22"/>
<rect x="560" y="459" width="11" height="11" rx="2" fill="#161b22"/>
<rect x="560" y="472" width="11" height="11" rx="2" fill="#0e4429"/>
<rect x="573" y="394" width="11" height="11" rx="2" fill="#0e4429"/>
<rect x="573" y="407" width="11" height="11" rx="2" fill="#161b22"/>
<rect x="573" y="420" width="11" height="11" rx="2" fill="#006d32"/>
<rect x="573" y="433" width="11" height="11" rx="2" fill="#0e4429"/>
<rect x="573" y="446" width="11" height="11" rx="2" fill="#39d353"/>
<rect x="573" y="459" width="11" height="11" rx="2" fill="#0e4429"/>
<rect x="573" y="472" width="11" height="11" rx="2" fill="#0e4429"/>
<rect x="586" y="394" width="11" height="11" rx="2" fill="#006d32"/>
<rect x="586" y="407" width="11" height="11" rx="2" fill="#0e4429"/>
<rect x="586" y="420" width="11" height="11" rx="2" fill="#26a641"/>
<rect x="586" y="433" width="11" height="11" rx="2" fill="#006d32"/>
<rect x="586" y="446" width="11" height="11" rx="2" fill="#006d32"/>
<rect x="586" y="459" width="11" height="11" rx="2" fill="#26a641"/>
<rect x="586" y="472" width="11" height="11" rx="2" fill="#006d32"/>
<rect x="599" y="394" width="11" height="11" rx="2" fill="#26a641"/>
<rect x="599" y="407" width="11" height="11" rx="2" fill="#0e4429"/>
<rect x="599" y="420" width="11" height="11" rx="2" fill="#0e4429"/>
<rect x="599" y="433" width="11" height="11" rx="2" fill="#161b22"/>
<rect x="599" y="446" width="11" height="11" rx="2" fill="#0e4429"/>
<rect x="599" y="459" width="11" height="11" rx="2" fill="#161b22"/>
<rect x="599" y="472" width="11" height="11" rx="2" fill="#006d32"/>
<rect x="612" y="394" width="11" height="11" rx="2" fill="#006d32"/>
<rect x="612" y="407" width="11" height="11" rx="2" fill="#161b22"/>
<rect x="612" y="420" width="11" height="11" rx="2" fill="#0e4429"/>
<rect x="612" y="433" width="11" height="11" rx="2" fill="#0e4429"/>
<rect x="612" y="446" width="11" height="11" rx="2" fill="#006d32"/>
<rect x="612" y="459" width="11" height="11" rx="2" fill="#0e4429"/>
<rect x="612" y="472" width="11" height="11" rx="2" fill="#0e4429"/>
<rect x="625" y="394" width="11" height="11" rx="2" fill="#0e4429"/>
<rect x="625" y="407" width="11" height="11" rx="2" fill="#0e4429"/>
<rect x="625" y="420" width="11" height="11" rx="2" fill="#0e4429"/>
<rect x="625" y="433" width="11" height="11" rx="2" fill="#0e4429"/>
<rect x="625" y="446" width="11" height="11" rx="2" fill="#0e4429"/>
<rect x="625" y="459" width="11" height="11" rx="2" fill="#161b22"/>
<rect x="625" y="472" width="11" height="11" rx="2" fill="#0e4429"/>
<rect x="638" y="394" width="11" height="11" rx="2" fill="#0e4429"/>
<rect x="638" y="407" width="11" height="11" rx="2" fill="#0e4429"/>
<rect x="638" y="420" width="11" height="11" rx="2" fill="#161b22"/>
<rect x="638" y="433" width="11" height="11" rx="2" fill="#161b22"/>
<rect x="638" y="446" width="11" height="11" rx="2" fill="#0e4429"/>
<rect x="638" y="459" width="11" height="11" rx="2" fill="#0e4429"/>
<rect x="638" y="472" width="11" height="11" rx="2" fill="#0e4429"/>
<rect x="651" y="394" width="11" height="11" rx="2" fill="#39d353"/>
<rect x="651" y="407" width="11" height="11" rx="2" fill="#0e4429"/>
<rect x="651" y="420" width="11" height="11" rx="2" fill="#0e4429"/>
<rect x="651" y="433" width="11" height="11" rx="2" fill="#26a641"/>
<rect x="651" y="446" width="11" height="11" rx="2" fill="#0e4429"/>
<rect x="651" y="459" width="11" height="11" rx="2" fill="#161b22"/>
<rect x="651" y="472" width="11" height="11" rx="2" fill="#006d32"/>
<rect x="664" y="394" width="11" height="11" rx="2" fill="#0e4429"/>
<rect x="664" y="407" width="11" height="11" rx="2" fill="#006d32"/>
<rect x="664" y="420" width="11" height="11" rx="2" fill="#0e4429"/>
<rect x="664" y="433" width="11" height="11" rx="2" fill="#0e4429"/>
<rect x="664" y="446" width="11" height="11" rx="2" fill="#006d32"/>
<rect x="664" y="459" width="11" height="11" rx="2" fill="#161b22"/>
<rect x="664" y="472" width="11" height="11" rx="2" fill="#161b22"/>
<rect x="677" y="394" width="11" height="11" rx="2" fill="#161b22"/>
<rect x="677" y="407" width="11" height="11" rx="2" fill="#0e4429"/>
<rect x="677" y="420" width="11" height="11" rx="2" fill="#161b22"/>
<rect x="677" y="433" width="11" height="11" rx="2" fill="#161b22"/>
<rect x="677" y="446" width="11" height="11" rx="2" fill="#161b22"/>
<rect x="677" y="459" width="11" height="11" rx="2" fill="#0e4429"/>
<rect x="677" y="472" width="11" height="11" rx="2" fill="#0e4429"/>
<rect x="690" y="394" width="11" height="11" rx="2" fill="#161b22"/>
<rect x="690" y="407" width="11" height="11" rx="2" fill="#0e4429"/>
<rect x="690" y="420" width="11" height="11" rx="2" fill="#39d353"/>
<rect x="690" y="433" width="11" height="11" rx="2" fill="#006d32"/>
<rect x="690" y="446" width="11" height="11" rx="2" fill="#161b22"/>
<rect x="690" y="459" width="11" height="11" rx="2" fill="#0e4429"/>
<rect x="690" y="472" width="11" height="11" rx="2" fill="#161b22"/>
<rect x="703" y="394" width="11" height="11" rx="2" fill="#0e4429"/>
<rect x="703" y="407" width="11" height="11" rx="2" fill="#161b22"/>
<rect x="703" y="420" width="11" height="11" rx="2" fill="#0e4429"/>

  <!-- LeetCode -->
  <text x="40" y="500" font-family="Cinzel, serif" font-size="9" fill="#8b949e" letter-spacing="3">LEETCODE</text><line x1="120" y1="497" x2="640" y2="497" stroke="#30363d" stroke-width="0.5"/>
  <rect x="40" y="510" width="180" height="52" rx="2" fill="none" stroke="#30363d" stroke-width="0.5"/><text x="130" y="532" text-anchor="middle" font-family="UnifrakturMaguntia, serif" font-size="22" fill="#e6edf3">55</text><text x="130" y="550" text-anchor="middle" font-family="Cinzel, serif" font-size="7" fill="#8b949e" letter-spacing="1.5">SOLVED</text><rect x="235" y="510" width="180" height="52" rx="2" fill="none" stroke="#30363d" stroke-width="0.5"/><text x="325" y="532" text-anchor="middle" font-family="UnifrakturMaguntia, serif" font-size="22" fill="#e6edf3">42</text><text x="325" y="550" text-anchor="middle" font-family="Cinzel, serif" font-size="7" fill="#8b949e" letter-spacing="1.5">EASY</text><rect x="430" y="510" width="180" height="52" rx="2" fill="none" stroke="#30363d" stroke-width="0.5"/><text x="520" y="532" text-anchor="middle" font-family="UnifrakturMaguntia, serif" font-size="22" fill="#e6edf3">11</text><text x="520" y="550" text-anchor="middle" font-family="Cinzel, serif" font-size="7" fill="#8b949e" letter-spacing="1.5">MEDIUM</text>

  <!-- Tags -->
  <text x="40" y="591" font-family="Cinzel, serif" font-size="8" fill="#8b949e" letter-spacing="1">ARRAY</text><rect x="140" y="583" width="320" height="3" rx="1" fill="#21262d"/><rect x="140" y="583" width="320" height="3" rx="1" fill="#8b949e" opacity="0.6"/><text x="468" y="591" font-family="Cinzel, serif" font-size="8" fill="#8b949e">20</text>
<text x="40" y="613" font-family="Cinzel, serif" font-size="8" fill="#8b949e" letter-spacing="1">MATH</text><rect x="140" y="605" width="320" height="3" rx="1" fill="#21262d"/><rect x="140" y="605" width="288" height="3" rx="1" fill="#8b949e" opacity="0.6"/><text x="468" y="613" font-family="Cinzel, serif" font-size="8" fill="#8b949e">18</text>
<text x="40" y="635" font-family="Cinzel, serif" font-size="8" fill="#8b949e" letter-spacing="1">STRING</text><rect x="140" y="627" width="320" height="3" rx="1" fill="#21262d"/><rect x="140" y="627" width="272" height="3" rx="1" fill="#8b949e" opacity="0.6"/><text x="468" y="635" font-family="Cinzel, serif" font-size="8" fill="#8b949e">17</text>
<text x="40" y="657" font-family="Cinzel, serif" font-size="8" fill="#8b949e" letter-spacing="1">HASH TABLE</text><rect x="140" y="649" width="320" height="3" rx="1" fill="#21262d"/><rect x="140" y="649" width="208" height="3" rx="1" fill="#8b949e" opacity="0.6"/><text x="468" y="657" font-family="Cinzel, serif" font-size="8" fill="#8b949e">13</text>
<text x="40" y="679" font-family="Cinzel, serif" font-size="8" fill="#8b949e" letter-spacing="1">TWO POINTERS</text><rect x="140" y="671" width="320" height="3" rx="1" fill="#21262d"/><rect x="140" y="671" width="176" height="3" rx="1" fill="#8b949e" opacity="0.6"/><text x="468" y="679" font-family="Cinzel, serif" font-size="8" fill="#8b949e">11</text>

  <!-- Quests -->
  <text x="40" y="720" font-family="Cinzel, serif" font-size="9" fill="#8b949e" letter-spacing="3">QUESTS</text><line x1="104" y1="717" x2="640" y2="717" stroke="#30363d" stroke-width="0.5"/>
  <text x="52" y="736" font-family="IM Fell English, serif" font-size="13" fill="#c9d1d9">🛠  I'm working on: —</text><text x="52" y="758" font-family="IM Fell English, serif" font-size="13" fill="#c9d1d9">🌱  I'm learning: Algorithms, Data Structures, System and Network Administration</text>

  <!-- Divider 2 -->
  <line x1="40" y1="734" x2="640" y2="734" stroke="#30363d" stroke-width="0.5"/><text x="340" y="738" text-anchor="middle" font-family="serif" font-size="10" fill="#8b949e" letter-spacing="4">✦  ✦  ✦</text><line x1="40" y1="742" x2="640" y2="742" stroke="#30363d" stroke-width="0.5"/>

  <!-- Footer -->
  <text x="340" y="762" text-anchor="middle" font-family="UnifrakturMaguntia, serif" font-size="13" fill="#8b949e" opacity="0.55" letter-spacing="2">~ I use NeoVim btw ~</text>
</svg>