<svg xmlns="http://www.w3.org/2000/svg" width="680" height="359" viewBox="0 0 680 359">
  <defs>
    <style>
      @import url('https://fonts.googleapis.com/css2?family=IM+Fell+English:ital@0;1&amp;display=swap');
    </style>
  </defs>
  <image href="banner-19.gif" width="680" height="251" />
  <g transform="translate(0, 125) scale(3.3272)">

  <defs
     id="defs1" />
  <g
     id="layer1"
     transform="translate(-3.3807975,-217.75742)">
    <g
       id="g4"
       style="fill:#e6edf3;fill-opacity:1"
       transform="translate(-2.9924433,-1.4962217)">
      <path
         d="m 63.153306,255.75885 v -0.20549 c -0.05137,-0.25687 -0.359609,-0.35961 -0.5651,-0.30824 -0.924711,0.46235 -1.952167,0.66785 -2.92825,0.97608 -0.976083,-0.30823 -1.746675,0.20549 -2.56864,-0.20549 -1.849421,-0.92471 -3.750214,-2.31177 -4.058451,-4.41806 -0.205491,-1.33569 -0.256864,-2.87688 -0.667846,-4.10982 0.308236,-1.84942 0,-4.10983 0,-5.95925 0.205491,-0.77059 0.359609,-1.90079 1.387065,-1.95216 0.462355,0.30823 0.924711,0.71921 1.027456,1.28432 0.205491,1.23294 1.438439,1.79804 1.64393,2.97962 0.256864,0.46235 0.462355,0.92471 0.616473,1.43844 0.102746,0.20549 0.102746,0.66784 -0.05137,0.82196 -0.71922,0.61647 -1.438439,1.18158 -2.209031,1.79805 0,0 0,0.10274 0,0.15412 0.308237,0 0.616474,0 0.976083,-0.15412 0.821965,-0.41098 1.592557,-0.92471 2.465895,-1.28432 0.256864,-0.10275 0.5651,-0.15412 0.873337,-0.20549 0.205491,-0.0514 0.410983,-0.15412 0.616474,-0.25687 0.667846,-0.71922 1.592557,-0.71922 2.517267,-0.77059 2.311776,-0.46235 0.205491,-2.46589 0,-3.59609 -1.078829,-1.3357 -1.541184,-2.72276 -2.157658,-4.26395 -0.770592,-0.46235 -0.5651,-2.10628 -1.84942,-1.79804 -0.565101,-0.10275 -0.770592,0.5651 -1.130202,0.82196 -1.746675,1.1302 -3.647469,1.59256 -5.651008,1.95217 -0.667846,0.0514 -1.130201,0.25686 -1.592557,0.77059 -1.335692,0.25686 -2.260403,1.48981 -3.030995,2.56864 -0.359609,0.5651 0.05137,1.43844 -0.667846,1.84942 0.05137,2.36315 -0.462355,4.77767 -0.308237,7.14082 0.565101,0.71922 0.308237,1.79805 0.667847,2.56864 -0.410983,0.77059 0.359609,1.28432 0.256864,2.00354 0.102745,0.92471 1.232947,1.18157 1.489811,2.05491 1.232947,1.33569 2.928249,2.00354 4.469433,3.03099 1.438439,0.25687 2.517267,-0.87333 3.596096,-1.64392 0.616474,0.10274 1.078829,-0.30824 1.64393,-0.46236 1.643929,-0.92471 3.647468,-1.23295 5.188652,-2.62001 z m 14.538459,-16.4393 c -0.821965,-1.48981 -2.260403,-0.15412 -3.441978,-0.46235 -0.667846,-0.30824 -0.821965,-0.92471 -1.130201,-1.48981 0.410982,-2.10629 -0.256864,-4.10983 0.513728,-5.95925 -0.35961,-0.92471 0.308236,-2.05491 -0.154119,-2.87688 -0.154118,-0.10274 -0.410982,-0.10274 -0.513728,0.0514 0,0.97608 -1.078829,1.33569 -1.027456,2.31177 -0.154118,1.95217 -1.335693,3.23649 -2.106285,4.82905 -1.592556,1.23294 -2.054912,3.49335 -3.904332,4.41806 -0.256864,0.97608 1.28432,1.02745 1.28432,2.15765 -0.308237,1.18158 0.667846,2.15766 0.256864,3.49335 -0.256864,1.3357 -0.462355,2.82551 0,4.10983 -0.308237,1.02745 0.102745,2.41452 -0.308237,3.3906 0.359609,1.1302 -1.078829,1.95217 -1.798048,2.56864 l 0.308237,0.46236 c 0.976083,0.0514 1.746675,0.92471 2.157657,1.79805 1.130202,0.5651 1.541184,1.59255 1.900794,2.67138 l 0.616473,0.0514 c 1.181575,-0.77059 1.952167,-2.20903 3.133741,-2.67138 0.616474,-1.1302 1.952167,-0.61647 2.620013,-1.59256 0.05137,-0.25686 0.102746,-0.61647 -0.102746,-0.77059 -0.359609,-0.20549 -0.770592,-0.46236 -1.232947,-0.41098 -1.643929,-0.5651 -1.438438,-2.31178 -1.746675,-3.75022 0.308237,-0.92471 -0.205491,-2.15765 0.205491,-3.18511 -0.205491,-2.10628 -0.205491,-4.52081 0.154119,-6.52435 1.027456,-0.5651 2.56864,-0.15411 3.750214,-0.46235 0.770592,-0.25686 0.92471,-1.43844 0.565101,-2.15766 z m 14.127441,-10.9424 c 0.102745,-0.25687 -0.102746,-0.61648 -0.410983,-0.66785 l -2.56864,0.30824 c -0.462355,-0.10275 -0.92471,0.15411 -1.28432,0.46235 -0.770592,-0.10274 -1.181574,0.82197 -1.952166,0.71922 -1.695302,1.02746 -3.185114,2.41452 -4.572179,3.95571 -0.308237,0.25686 -1.232947,-0.0514 -1.078829,0.71921 0.616474,0.61648 0.719219,1.38707 1.078829,2.10629 -0.256864,1.48981 0.719219,2.62001 0.308237,4.1612 0.205491,0.25686 0.308236,0.46235 0.256864,0.82196 -0.513728,1.07883 0,2.2604 -0.205492,3.39061 0.462356,1.64393 -0.513728,3.64746 0.256864,5.24002 0.154119,1.74668 -0.205491,3.28786 -0.256864,5.03454 -0.359609,0.66784 -0.976083,1.18157 -1.28432,1.79804 0,0.5651 0.71922,0.46236 1.027456,0.7706 1.746676,0.30823 2.106285,2.31177 3.390605,3.33923 h 0.35961 c 1.078828,-0.97609 1.84942,-2.72276 3.49335,-2.87688 0.462355,-0.10274 0.873338,-0.5651 0.770592,-1.1302 -1.078829,-0.92471 -1.64393,-2.31178 -1.438438,-3.75022 -0.102746,-2.15765 0.05137,-4.26394 0.05137,-6.26748 -0.205491,-0.87333 -0.205491,-1.84942 -0.308236,-2.67138 0.359609,-1.33569 0.205491,-2.82551 0.102745,-4.1612 -0.102745,-0.92471 0.308237,-1.74667 0.102746,-2.77413 0.256864,-2.15766 -0.35961,-4.57218 0.821965,-6.52435 0.308236,-0.51372 0.92471,-0.61647 1.130201,-1.23294 0.616474,-0.61648 1.592557,0 2.209031,-0.77059 z m 7.089446,16.18243 c 0.513728,-2.82551 -0.154119,-5.65101 -2.517267,-7.44906 -0.71922,-0.46235 -1.489812,-0.10274 -2.003539,0.41098 -1.489812,1.69531 -3.698842,2.77413 -5.548263,4.05845 -0.05137,0.25687 -0.513728,0.46236 -0.154118,0.7706 0.719219,-0.35961 1.541184,-0.61648 2.20903,-1.02746 2.054912,0 1.438439,2.36315 1.900794,3.5961 0.308237,0.5651 -0.35961,1.1302 0.102745,1.64393 -0.770592,1.95216 0.205492,3.9557 -0.308236,5.80512 0.616473,0.87334 -0.462356,1.84942 -0.102746,2.87688 -0.35961,1.02746 0.05137,2.2604 -0.05137,3.44198 -0.410982,1.90079 -0.308237,4.10982 -1.28432,5.75375 -0.154118,1.95217 -2.003539,3.031 -3.236486,4.41806 0,0.15412 0,0.30824 0.05137,0.46236 1.592556,0.15411 2.363148,-1.69531 3.801587,-2.00354 2.106285,-2.62002 5.496889,-4.62355 6.164736,-8.11691 0.770592,-1.02745 0.205491,-2.56864 0.667846,-3.69884 -0.102746,-2.41452 0.05137,-4.72629 0.154118,-6.9867 0.05137,-1.38706 -0.359609,-2.67138 0.154119,-3.9557 z m 78.805578,-4.82905 c 0.15412,-0.35961 -0.15412,-0.66784 -0.41098,-0.97608 0.0514,-0.15412 -0.15412,-0.0514 -0.20549,-0.20549 -0.0514,-0.66785 -0.82197,-0.82197 -1.07883,-1.33569 -0.61647,-0.25687 -0.77059,-0.87334 -1.18157,-1.28432 -0.41099,-0.0514 -0.10275,-0.10275 -0.46236,-0.30824 -1.07883,0.15412 -1.02746,1.38707 -1.54118,2.15766 l -0.25687,0.15412 c -0.10274,0.61647 -0.51373,1.02745 -0.77059,1.54118 -0.25686,0.35961 -0.41098,0.87334 -0.77059,1.18157 -0.15412,0.35961 -0.41098,1.07883 -0.5651,1.43844 -0.61648,0.66785 -1.1302,1.84942 -1.64393,2.67139 -0.10275,0.10274 -0.25687,-0.46236 -0.51373,-0.5651 -0.46236,-0.66785 -0.61647,-1.43844 -0.97608,-2.20903 -0.71922,-0.87334 -0.61648,-2.10629 -1.28432,-3.08237 -0.10275,-1.07883 -0.97609,-1.54118 -1.69531,-2.15766 -0.10274,-0.25686 -0.51372,-0.30824 -0.66784,-0.61647 -0.61648,-0.10275 -0.77059,-0.77059 -1.43844,-0.82197 -0.66785,-0.0514 -1.33569,0.20549 -2.00354,0.15412 -0.71922,0.10275 -1.18157,0 -1.84942,0.10275 -0.46236,0.20549 -1.07883,-0.10275 -1.43844,0.25686 -0.15412,0.25687 -0.30824,0.71922 -0.35961,0.97608 -0.25686,0.87334 -1.18157,1.59256 -1.02745,2.67139 0.5651,-0.0514 1.1302,0.35961 1.74667,0.25686 0.77059,0.10275 1.33569,0.82197 1.59256,1.54119 0.46235,0.35961 0.61647,0.87334 0.82196,1.38706 0.66785,0.61648 0.66785,1.48981 1.18158,2.15766 0.5651,1.79805 1.84942,3.80159 2.67138,5.59964 0.30824,0.82196 -0.5651,1.64393 -0.71922,2.31177 -0.20549,0.77059 -0.82196,1.18158 -1.23294,1.79805 -0.0514,0.15412 -1.02746,-0.35961 -1.18158,-0.51373 -0.46235,-0.30823 -0.82196,-0.77059 -1.07883,-1.28432 -0.51372,-0.41098 -1.02745,-1.38706 -1.84942,-1.23295 -0.35961,0.41099 -0.25686,1.02746 -0.77059,1.3357 -0.51373,1.07883 -1.1302,2.10628 -1.54118,3.18511 -0.51373,0.51373 0.35961,0.77059 0.35961,1.18158 0.61647,0.30823 1.1302,0.97608 1.64393,1.48981 0.20549,0.46235 0.66784,0.82196 1.07882,1.23294 0.10275,0.35961 0.56511,0.61648 0.97609,0.7706 0.30823,-0.10275 0.30823,-0.5651 0.46235,-0.82197 0.51373,-0.51373 0.66785,-1.23295 0.92471,-1.90079 0.15412,-0.46236 0.61648,-0.77059 0.71922,-1.28432 0.46236,-0.97609 1.18158,-1.84942 1.6953,-2.82551 0.30824,-0.41098 0.35961,-0.97608 0.7706,-1.23294 0.35961,0.10274 0.20549,0.51372 0.41098,0.71922 0.10274,0.97608 0.61647,1.90079 1.1302,2.72275 0.41098,0.92471 0.61647,2.20903 1.64393,2.62002 0.77059,0.46235 1.74668,1.07883 2.31178,1.48981 h 0.0514 c 0.51373,0.25686 0.92471,0.66784 1.43844,0.97608 0.46235,0.10275 0.87333,-0.15412 1.18157,-0.46235 0.30824,-0.41099 0.87334,-0.51373 1.07883,-1.02746 0.51373,-0.10275 0.61647,-0.61647 1.02746,-0.87334 0.30823,-0.15412 0.30823,-0.5651 0.61647,-0.61647 0.30824,-0.5651 0.92471,-0.87334 1.38707,-1.33569 0.20549,-0.61648 0.87333,-0.71922 1.07882,-1.38707 0.0514,-0.15412 0,-0.35961 -0.0514,-0.5651 -0.15412,-0.15412 -0.41098,-0.25686 -0.66784,-0.25686 -0.61648,0.15411 -1.18158,0.46235 -1.74668,0.5651 -0.25686,0.25686 -0.66785,0.0514 -0.92471,-0.0514 -0.30824,-0.15411 -0.87334,0 -0.92471,-0.41098 -0.35961,-0.30824 -0.77059,-0.5651 -0.82197,-1.02745 -0.82196,-0.92472 -0.92471,-2.00354 -1.48981,-3.031 -0.0514,-0.46236 -0.25686,-0.82196 -0.41098,-1.23295 0.0514,-0.5651 -0.46235,-0.92471 -0.46235,-1.43844 -0.35961,-0.30823 -0.41099,-0.87333 -0.61648,-1.23294 0.10275,-1.18158 0.87334,-2.15766 1.38707,-3.18512 0.15412,-0.20549 0.46235,-0.41098 0.51373,-0.71922 0.20549,-0.3596 0.35961,-0.71921 0.66784,-1.02745 0.25687,0 0.46236,0.20549 0.66785,0.35961 0.41098,0.61647 0.97608,1.07883 1.43844,1.64393 0.35961,0.41098 0.87333,0.51373 1.02745,1.1302 0.46236,0.20549 0.41099,-0.46236 0.71922,-0.61647 0.25687,-0.46236 0.61648,-0.97609 0.77059,-1.48982 0.15412,-0.51372 0.30824,-1.07882 0.51373,-1.59255 0.41098,-0.25687 0.35961,-0.66785 0.71922,-0.92471 0.10275,-0.15412 -0.0514,-0.51373 0.20549,-0.61648 z m 19.3675,16.02832 v -0.20549 c -0.0514,-0.25687 -0.35961,-0.35961 -0.5651,-0.30824 -0.92471,0.46235 -1.95217,0.66785 -2.92825,0.97608 -0.97609,-0.30823 -1.74668,0.20549 -2.56864,-0.20549 -1.84942,-0.92471 -3.75022,-2.31177 -4.05845,-4.41806 -0.2055,-1.33569 -0.25687,-2.87688 -0.66785,-4.10982 0.30824,-1.84942 0,-4.10983 0,-5.95925 0.20549,-0.77059 0.35961,-1.90079 1.38707,-1.95216 0.46235,0.30823 0.92471,0.71921 1.02745,1.28432 0.20549,1.23294 1.43844,1.79804 1.64393,2.97962 0.25686,0.46235 0.46236,0.92471 0.61647,1.43844 0.10275,0.20549 0.10275,0.66784 -0.0514,0.82196 -0.71922,0.61647 -1.43844,1.18158 -2.20903,1.79805 0,0 0,0.10274 0,0.15412 0.30824,0 0.61647,0 0.97608,-0.15412 0.82197,-0.41098 1.59256,-0.92471 2.4659,-1.28432 0.25686,-0.10275 0.5651,-0.15412 0.87334,-0.20549 0.20549,-0.0514 0.41098,-0.15412 0.61647,-0.25687 0.66785,-0.71922 1.59256,-0.71922 2.51727,-0.77059 2.31177,-0.46235 0.20549,-2.46589 0,-3.59609 -1.07883,-1.3357 -1.54119,-2.72276 -2.15766,-4.26395 -0.77059,-0.46235 -0.5651,-2.10628 -1.84942,-1.79804 -0.5651,-0.10275 -0.77059,0.5651 -1.1302,0.82196 -1.74668,1.1302 -3.64747,1.59256 -5.65101,1.95217 -0.66785,0.0514 -1.1302,0.25686 -1.59256,0.77059 -1.33569,0.25686 -2.2604,1.48981 -3.03099,2.56864 -0.35961,0.5651 0.0514,1.43844 -0.66785,1.84942 0.0514,2.36315 -0.46235,4.77767 -0.30824,7.14082 0.5651,0.71922 0.30824,1.79805 0.66785,2.56864 -0.41098,0.77059 0.35961,1.28432 0.25686,2.00354 0.10275,0.92471 1.23295,1.18157 1.48982,2.05491 1.23294,1.33569 2.92825,2.00354 4.46943,3.03099 1.43844,0.25687 2.51727,-0.87333 3.5961,-1.64392 0.61647,0.10274 1.07882,-0.30824 1.64392,-0.46236 1.64393,-0.92471 3.64747,-1.23295 5.18866,-2.62001 z m 13.66512,-27.22759 c -1.18157,-0.30823 -2.46589,0.10275 -3.64747,0.30824 -1.18157,0.5651 -2.2604,1.43844 -3.54472,1.74668 -0.41098,1.07882 -1.79805,1.07882 -2.20903,2.20903 -0.97609,0.61647 -1.28432,-0.87334 -1.9008,-1.28432 l -0.15411,0.10274 c 0,0.30824 0.25686,0.41098 0.35961,0.66785 0.10274,1.1302 1.23294,2.05491 0.87333,3.13374 0.35961,1.23295 -0.0514,2.87688 0.46236,4.05845 -0.10275,1.84942 -0.0514,3.54472 0.25686,5.34277 -0.30823,0.15412 -0.25686,0.51373 -0.35961,0.77059 0.46236,1.43844 0,3.08237 -0.10274,4.52081 0.35961,1.54118 -0.0514,3.28786 -0.41099,4.82904 -0.25686,0.61648 -1.43843,0.97609 -0.97608,1.6953 1.07883,0.2055 2.00354,0.97609 2.97962,1.59256 0.20549,1.02746 1.23295,1.64393 2.20903,1.79805 1.18158,-0.61647 2.36315,-1.43844 3.54473,-2.00354 0.92471,0.25686 1.74667,-0.35961 2.36315,-0.92471 0.15411,-0.25686 0.0514,-0.5651 -0.10275,-0.77059 -0.77059,0.20549 -1.28432,0.20549 -2.00354,0.0514 -0.51373,-0.30824 -1.02745,-0.5651 -1.18157,-1.18157 -0.5651,-2.97963 0.15412,-5.95925 -0.25687,-8.78475 0.5651,-1.74668 0,-3.64747 0.15412,-5.34277 -0.15412,-1.38707 0.20549,-2.67139 0,-4.1612 0.25687,-2.41452 -0.66785,-5.49689 1.64393,-7.14082 0.61647,-0.46235 2.05491,-0.0514 2.00354,-1.23295 z"
         id="text2"
         style="font-size:51.3728px;font-family:Flyerfonts;-inkscape-font-specification:Flyerfonts;fill:#e6edf3;stroke-width:3.85297"
         aria-label="eth   xel" />
      <path
         d="m 155.82349,219.68209 c -0.41406,-0.29576 -0.82813,-0.11831 -1.30134,-0.17745 -1.53795,0.70981 -3.48996,0.0591 -4.79129,1.18302 -1.06473,0.11831 -1.7154,0.76897 -2.54352,1.30135 -0.94643,0.1183 -1.36049,1.41963 -2.54353,1.24217 -1.00558,0.82812 -1.53793,2.12947 -2.66182,2.89844 -0.47321,0 -0.95705,0.5061 -2.44253,1.91721 -1.37783,1.39052 -0.47322,1.80699 -1.83371,1.09716 -0.11831,0.41406 0.70489,5.25577 1.05981,5.66983 0.0165,-1.2566 1.5655,-6.50809 1.74295,-5.44335 0.17745,2.95758 1.11858,2.61517 0.0539,5.45445 0.47321,0.47321 -0.0592,1.24218 0.1183,1.77455 0.82813,1.18303 -0.47321,2.36607 0.11831,3.4308 -0.35491,1.36048 1.18302,2.30692 0.2366,3.60825 0,0.35491 0.53236,0.59152 0.29576,1.00558 -0.41407,2.30691 -0.35491,4.55467 -1.00557,6.74329 0.41405,0.59152 0.53235,1.47879 0.5915,2.18862 -1.18302,2.78012 1.53796,4.49551 2.89845,6.21092 0.2366,0.53237 1.30133,0.41406 1.00557,1.30134 0.17746,0.29576 0.35491,0.41406 0.70982,0.53236 1.18304,0.11831 1.89286,-0.70982 2.48437,-1.53794 1.83371,-1.00558 3.01673,-3.25335 5.20536,-4.02231 0.65067,-0.70983 2.18861,-0.47322 2.3069,-1.83371 -0.4732,-1.18303 -1.77454,-0.29575 -2.66182,-0.23661 -0.88727,0 -1.53793,-0.94642 -1.952,-1.59709 0.17744,-1.71541 -0.53237,-3.48995 0.11829,-5.20534 -0.41406,-1.06474 0.0592,-2.42523 -0.0591,-3.54911 0.29576,-1.77455 -0.0591,-3.96316 -0.23661,-5.79686 0.88728,-1.83371 -0.29576,-3.90402 0.0592,-5.91517 0.59152,-3.48995 -0.53236,-7.51227 1.24219,-10.52901 0.53236,-0.94642 1.59709,-0.88726 2.48437,-1.06473 0.47321,-0.29576 1.18303,-0.1183 1.30134,-0.65066 z m -17.24257,10.70644 c 0.47321,-2.01114 -1.27705,-2.70162 -1.39535,-4.77192 -1.00558,-1.00558 -1.18304,-2.95759 -2.83929,-3.13505 -0.4732,-0.29575 -0.53236,-1.12388 -1.24217,-1.00557 -1.00558,-0.70982 -2.42523,-1.30494 -3.54911,-1.83731 -3.1247,-0.009 -5.34794,-1.13963 -7.65485,0.51662 -1.06474,-0.11831 -1.95201,0.41407 -2.89844,0.76898 -0.29576,0.29575 -1.24217,0.29575 -0.94642,1.06473 0.65066,-0.0591 1.06473,-0.47323 1.71539,-0.53238 1.95201,0.23662 6.26222,-0.6733 8.03676,0.56888 1.53795,1.1239 2.36608,3.0759 2.83928,4.9096 0.88728,1.5971 0.59151,3.25335 0.70982,5.08705 1.12388,0.82813 0,1.7154 0.0592,2.78013 0.59151,2.12946 -0.30133,4.27648 -0.59153,6.56584 -0.24938,1.96738 -3.60037,4.87306 -4.07358,6.88422 -0.59152,2.66183 -3.60825,2.42521 -4.90958,4.43638 -0.82813,0.29575 -1.95201,0.82813 -2.18862,1.65625 -0.88728,0.47321 -1.18303,1.65624 -2.01116,2.24775 -0.47321,0.59152 -1.00558,1.06474 -1.24219,1.77456 0.17747,0.23661 0.41407,0.59152 0.82813,0.47321 1.30133,-1.18303 2.89843,-2.36606 4.85044,-2.01116 0.70981,-0.70981 1.8337,-0.53236 2.66183,-0.65067 0.65066,0.88728 1.89285,0.47322 2.66182,1.18304 1.83371,-0.17746 1.89286,1.83371 3.25334,2.60267 0.29576,0.47322 0.41406,0.88727 0.88728,1.24219 1.18302,0.17746 1.47879,-1.06473 2.3069,-1.4788 0.51043,-2.84065 1.66088,-3.55579 3.13967,-4.56137 0,-0.82812 5.65175,-5.18684 4.75822,-5.8123 -0.38768,-0.27137 -3.56317,1.28674 -7.26128,4.63532 -1.57121,-1.32398 -1.07005,-0.80086 -1.60242,-1.27408 -0.82813,-1.53794 -0.65923,-0.83807 -1.90142,-1.60704 -0.94642,-0.65067 -1.09592,-0.72645 -2.1015,-1.31798 -0.35491,-0.59151 -1.7154,-0.65066 -1.12388,-1.71539 1.7154,-1.77454 3.96316,-2.42522 5.85601,-3.78571 1.06473,-0.88728 2.54352,-1.36048 2.89843,-2.89843 1.5971,-1.12388 1.24219,-2.95759 1.77455,-4.55468 0.76897,-2.07031 0.61892,-3.21691 0.41149,-5.29037 z"
         id="text2-2-0"
         style="font-size:51.3728px;font-family:Flyerfonts;-inkscape-font-specification:Flyerfonts;fill:#e6edf3;fill-opacity:1;stroke-width:4.43638"
         aria-label="A" />
      <path
         d="m 44.602418,243.13655 c 0,-0.82197 -0.410983,-1.54118 -0.462355,-2.31178 -0.924711,-0.66784 -1.232948,-1.84942 -1.64393,-2.8255 -0.976083,-0.5651 -1.900794,-1.48981 -2.92825,-2.05491 -1.232947,0.20549 -2.20903,-0.92471 -3.49335,-0.61648 -1.28432,-0.82196 -2.56864,-0.46235 -4.109824,-0.30823 -0.462355,0.0514 -0.976083,0.30823 -1.28432,0.25686 -0.616473,-0.15412 -1.387065,0.0514 -1.849421,0.5651 -1.746675,0.71922 -3.801587,1.18158 -5.085907,2.77413 -0.770592,0.5651 -1.746675,0.71922 -2.311776,1.69531 -1.489811,0.71921 -2.825503,2.10628 -4.520806,2.36314 -1.643929,0 -5.061181,-3.2865 -5.883146,-4.87905 -0.719219,-1.95217 -0.632448,-2.60897 0.0125,-4.3816 0.649383,-1.06587 2.393328,-3.02613 2.827563,-3.19302 0.724732,-0.27853 0.893214,-0.67177 -1.476064,0.10342 -1.489812,0.87333 -1.272836,1.43367 -2.8758205,3.18064 -1.02404,1.76142 -1.104834,3.84718 -0.693849,4.92601 2.1120975,4.10879 3.9033475,4.98128 5.1362955,5.85462 0.410982,0 0.578948,0.49527 1.719578,0.80351 2.106285,0.51372 3.904333,1.6953 6.06199,2.00354 1.746675,-0.2055 3.493351,-0.2055 5.13728,-0.66785 1.027456,-0.25687 1.695302,-1.18158 2.671386,-1.54119 1.489811,-1.28432 3.339232,-2.72275 4.983161,-3.75021 0.770592,-1.33569 2.209031,-1.90079 3.441978,-2.56864 0.616473,-0.20549 1.28432,-0.15412 1.84942,-0.35961 1.387066,-0.0514 1.522359,1.51575 2.65256,2.1836 0.35961,0.25686 0.616989,1.23346 1.027971,1.49032 0.267542,1.72889 0.153604,2.48726 -0.308751,3.82295 -1.680758,2.42833 -1.214122,2.98318 -2.241578,4.16476 -2.20903,1.28432 -4.674925,1.59255 -6.986701,2.31177 -0.256864,0 -0.513728,-0.20549 -0.770592,0 -0.821964,-0.25686 -1.900793,0.0514 -2.722758,0.25687 -2.260403,-0.5651 -4.161197,0.66784 -6.4216,-0.25687 -0.92471,0.77059 -2.003539,0.15412 -2.979622,-0.10274 -1.387066,0.41098 -2.620013,-0.51373 -4.058451,-0.25687 -0.410983,-0.30823 -0.821965,-0.51373 -1.335693,-0.66784 -0.976083,-1.18158 -3.148881,0.26669 -4.690962,-1.37262 -5.0930171,-3.26635 -4.6755543,-9.30706 -4.2962536,-11.625 0.1350505,-0.82531 0.1738737,-1.66731 0.5848564,-2.33515 0,-1.84942 1.7752677,-2.90458 2.4944867,-4.44576 1.5411845,-0.66785 2.4658945,-2.20903 4.1098245,-2.4659 0.873338,-0.71921 2.260403,-0.66784 3.339232,-0.66784 1.027456,-0.82197 2.311776,-0.10275 3.441977,-0.51373 1.489812,0.10275 3.030996,0.46236 4.366688,1.02746 2.00354,1.18157 4.263943,1.74667 6.4216,2.62001 1.078829,-0.15412 1.746675,0.82196 2.825504,0.51373 3.85296,1.1302 7.089446,-1.74668 9.34985,-4.41806 0.205491,-0.61648 0.256864,-1.3357 0.770592,-1.79805 0.102745,-0.20549 0.102745,-0.66785 -0.256864,-0.71922 -0.308237,0.92471 -1.181575,1.90079 -2.157658,2.20903 -1.027456,0.82196 -2.671386,0.25686 -3.698842,-0.35961 -1.643929,-0.25686 -3.082367,-1.18157 -4.41806,-2.10629 h -0.410989 c -1.28432,-0.51372 -2.311776,-1.48981 -3.596096,-1.95216 -1.489811,-0.25687 -2.928249,-0.77059 -4.572179,-0.82197 -1.84942,-0.30823 -3.339232,0.51373 -5.13728,0.41099 -0.462355,0.25686 -0.821964,0.82196 -1.489811,0.71922 -1.695302,0.66784 -3.441977,0.97608 -4.77767,2.41452 -1.232947,-0.0514 -1.181574,1.38706 -2.20903,1.74667 -1.130202,0.5651 -1.489812,1.84942 -2.0549125,2.77413 -1.078829,0.41099 -0.976083,1.84942 -1.64393,2.72276 -0.3082367,0.92471 -1.0274558,1.6953 -1.0788286,2.67139 -0.3596096,1.54118 -0.5651008,3.3906 -0.513728,5.13728 0.1119919,4.36767 2.2515796,8.80558 3.1337406,9.96632 0.8219655,1.07883 1.3356935,2.2604 2.4658945,3.03099 0.565101,1.38707 2.363149,1.48982 2.774132,2.97963 1.438438,0.41098 2.414521,1.43844 3.801587,2.00354 2.20903,1.6953 4.931788,2.05491 7.757292,2.20903 0.410983,-0.0514 0.667847,0.41098 1.078829,0.10274 1.027456,0.15412 1.900794,-0.41098 2.92825,-0.25686 0.976083,-0.41098 2.260403,0.10274 3.082368,-0.92471 1.387065,-0.15412 2.465894,-1.23295 3.698841,-1.6953 1.181574,-0.7706 2.774131,-1.13021 3.339232,-2.4659 1.64393,-2.00354 2.92825,-4.41806 3.339232,-7.03807 1.027456,-1.48981 0.616474,-3.49335 0.821967,-5.2914 z"
         id="text2-3"
         style="font-size:51.3728px;font-family:Flyerfonts;-inkscape-font-specification:Flyerfonts;fill:#e6edf3;fill-opacity:1;stroke-width:3.85297"
         aria-label="S" />
    </g>
  </g>

  </g>
  <text x="340" y="319" text-anchor="middle"
    font-family="IM Fell English,serif" font-style="italic" font-size="15" fill="#8b949e" letter-spacing="2">[sɛθ ˈæk.səl]</text>
  <text x="340" y="339" text-anchor="middle"
    font-family="IM Fell English,serif" font-style="italic" font-size="13" fill="#8b949e" opacity="0.8">he/him · Junior C &amp; Python Dev</text>
</svg>