<svg xmlns="http://www.w3.org/2000/svg" width="680" height="150" viewBox="0 0 680 150">
  <defs>
    <style>
      @import url('https://fonts.googleapis.com/css2?family=IM+Fell+English:ital@0;1&amp;display=swap');
    </style>
  </defs>
  <g fill="#e6edf3">
    <path d="M25.7 13.1C25.5 13.9 25.0 14.6 24.7 15.4C24.1 17.9 21.2 18.4 20.8 21.0L21.5 23.2C22.8 25.0 24.7 26.8 24.5 29.3C24.6 30.8 24.7 32.2 24.1 33.5C24.2 34.8 23.1 35.6 22.4 36.6C22.0 37.1 21.8 37.9 21.0 37.9C20.5 37.2 21.6 36.7 21.7 36.1C23.4 34.6 22.8 31.7 22.4 29.9C21.7 28.5 20.5 27.5 19.0 27.5C17.1 27.0 15.4 28.3 13.9 29.2C13.5 29.9 13.0 30.8 12.3 30.9C11.2 30.8 11.1 29.6 10.5 28.9C10.0 27.6 8.9 26.9 7.9 26.1L7.7 25.6C8.6 25.2 9.5 24.5 10.4 24.1C11.8 22.6 13.7 22.3 15.5 21.6C16.6 21.7 17.1 21.3 18.1 21.2C19.0 21.0 19.3 20.0 19.5 19.2C19.0 18.4 18.7 17.4 17.8 16.7C16.6 16.3 15.6 15.6 14.3 15.4C14.2 15.1 14.5 15.1 14.6 14.9C15.4 14.7 16.2 15.3 16.6 14.4C18.4 14.8 18.7 12.6 19.9 11.7C20.3 10.9 20.0 9.9 20.6 9.2C20.0 7.6 20.0 5.8 18.5 4.6C16.9 3.5 16.4 5.9 15.3 6.6C14.4 6.9 13.9 7.6 13.0 7.9C11.5 9.4 9.0 8.6 7.5 10.1C7.2 10.7 7.4 11.4 7.6 11.9C8.6 13.3 9.9 14.0 11.3 14.4C12.1 14.7 13.2 14.4 13.5 15.2C11.0 15.1 9.1 16.6 7.3 18.1C6.5 20.3 6.0 23.1 7.2 25.4C7.2 25.5 7.0 25.5 6.9 25.5C6.3 24.8 5.1 24.7 4.9 23.7C2.5 22.4 1.4 20.0 1.3 17.3C0.8 13.7 5.8 13.5 5.8 10.0C6.1 8.2 4.3 7.3 3.5 6.0C3.0 5.3 1.7 5.2 1.7 4.1C2.0 3.2 3.0 3.7 3.8 3.3C5.1 3.1 6.6 3.3 7.6 2.3C10.2 2.4 10.1 -1.1 12.5 -1.2C13.5 -0.4 14.5 0.5 15.3 1.6C16.9 1.7 17.7 3.2 19.1 3.5C20.0 4.8 21.6 5.4 22.4 6.8C24.5 8.3 25.6 10.7 25.7 13.1Z" transform="translate(229.3, 93.0) scale(1, -1)"/>
    <path d="M22.1 5.0V5.3C22.1 5.6 21.7 5.7 21.5 5.6C20.3 5.1 19.1 4.8 17.9 4.5C16.7 4.8 15.8 4.2 14.8 4.7C12.6 5.8 10.3 7.5 9.9 10.0C9.7 11.7 9.6 13.5 9.1 15.0C9.5 17.2 9.1 20.0 9.1 22.2C9.4 23.1 9.5 24.5 10.8 24.6C11.3 24.2 11.9 23.7 12.0 23.0C12.3 21.5 13.8 20.8 14.0 19.4C14.3 18.8 14.6 18.3 14.8 17.7C14.9 17.4 14.9 16.9 14.7 16.7C13.8 15.9 13.0 15.3 12.0 14.5C12.0 14.5 12.0 14.4 12.0 14.3C12.4 14.3 12.8 14.3 13.2 14.5C14.2 15.0 15.1 15.6 16.2 16.1C16.5 16.2 16.9 16.2 17.2 16.3C17.5 16.4 17.7 16.5 18.0 16.6C18.8 17.5 19.9 17.5 21.0 17.5C23.8 18.1 21.3 20.5 21.0 21.9C19.7 23.5 19.2 25.2 18.4 27.0C17.5 27.6 17.7 29.6 16.2 29.2C15.5 29.3 15.3 28.5 14.8 28.2C12.7 26.8 10.4 26.3 8.0 25.9C7.2 25.8 6.6 25.5 6.1 24.9C4.5 24.6 3.3 23.1 2.4 21.8C2.0 21.1 2.5 20.1 1.6 19.6C1.7 16.7 1.1 13.8 1.2 11.0C1.9 10.1 1.6 8.8 2.0 7.9C1.6 6.9 2.5 6.3 2.4 5.5C2.5 4.3 3.8 4.0 4.2 3.0C5.6 1.4 7.7 0.6 9.5 -0.7C11.3 -1.0 12.6 0.4 13.9 1.3C14.6 1.2 15.2 1.7 15.9 1.9C17.9 3.0 20.3 3.3 22.1 5.0Z" transform="translate(256.2, 93.0) scale(1, -1)"/>
    <path d="M16.1 24.9C15.1 26.7 13.4 25.0 12.0 25.4C11.2 25.8 11.0 26.5 10.6 27.2C11.1 29.8 10.3 32.2 11.2 34.4C10.8 35.5 11.6 36.9 11.0 37.9C10.8 38.0 10.5 38.0 10.4 37.8C10.4 36.6 9.1 36.2 9.2 35.0C9.0 32.7 7.6 31.1 6.6 29.2C4.7 27.7 4.2 25.0 1.9 23.9C1.6 22.7 3.5 22.6 3.5 21.3C3.1 19.8 4.3 18.7 3.8 17.1C3.5 15.4 3.2 13.6 3.8 12.1C3.4 10.8 3.9 9.2 3.4 8.0C3.8 6.6 2.1 5.6 1.2 4.9L1.6 4.3C2.8 4.3 3.7 3.2 4.2 2.2C5.6 1.5 6.1 0.2 6.5 -1.1L7.3 -1.1C8.7 -0.2 9.6 1.6 11.0 2.1C11.8 3.5 13.4 2.9 14.2 4.0C14.3 4.3 14.3 4.8 14.1 5.0C13.6 5.2 13.1 5.5 12.6 5.5C10.6 6.1 10.8 8.2 10.5 10.0C10.8 11.1 10.2 12.6 10.7 13.8C10.5 16.4 10.5 19.3 10.9 21.7C12.2 22.4 14.0 21.9 15.4 22.3C16.4 22.6 16.6 24.0 16.1 24.9Z" transform="translate(279.8, 93.0) scale(1, -1)"/>
    <path d="M15.6 38.1C15.7 38.4 15.4 38.8 15.1 38.9L12.0 38.5C11.4 38.6 10.8 38.3 10.4 37.9C9.5 38.1 9.0 37.0 8.1 37.1C6.0 35.8 4.2 34.2 2.5 32.3C2.2 32.0 1.1 32.4 1.2 31.4C2.0 30.7 2.1 29.8 2.5 28.9C2.2 27.1 3.4 25.7 2.9 23.9C3.2 23.6 3.3 23.3 3.2 22.9C2.6 21.6 3.2 20.1 3.0 18.8C3.5 16.8 2.4 14.4 3.3 12.5C3.5 10.4 3.0 8.5 3.0 6.4C2.5 5.6 1.8 5.0 1.4 4.2C1.4 3.5 2.3 3.7 2.7 3.3C4.8 2.9 5.2 0.5 6.8 -0.7H7.2C8.5 0.4 9.4 2.5 11.4 2.7C12.0 2.9 12.5 3.4 12.3 4.1C11.0 5.2 10.4 6.9 10.6 8.6C10.5 11.2 10.7 13.8 10.7 16.2C10.4 17.2 10.4 18.4 10.3 19.4C10.7 21.0 10.5 22.8 10.4 24.4C10.3 25.5 10.8 26.5 10.5 27.8C10.8 30.4 10.1 33.3 11.5 35.6C11.9 36.3 12.6 36.4 12.9 37.1C13.6 37.9 14.8 37.1 15.6 38.1ZM24.1 18.5C24.7 21.9 23.9 25.4 21.1 27.5C20.2 28.1 19.3 27.7 18.7 27.0C16.9 25.0 14.2 23.7 12.0 22.1C11.9 21.8 11.3 21.6 11.8 21.2C12.6 21.6 13.6 21.9 14.4 22.4C16.9 22.4 16.2 19.6 16.7 18.1C17.1 17.4 16.3 16.7 16.9 16.1C15.9 13.8 17.1 11.3 16.5 9.1C17.2 8.1 15.9 6.9 16.4 5.6C15.9 4.4 16.4 2.9 16.3 1.5C15.8 -0.8 15.9 -3.5 14.8 -5.5C14.6 -7.8 12.3 -9.1 10.8 -10.8C10.8 -11.0 10.8 -11.2 10.9 -11.3C12.8 -11.5 13.8 -9.3 15.5 -8.9C18.0 -5.8 22.1 -3.3 22.9 0.9C23.9 2.1 23.2 4.0 23.7 5.3C23.6 8.2 23.8 11.0 23.9 13.8C24.0 15.4 23.5 17.0 24.1 18.5Z" transform="translate(297.4, 93.0) scale(1, -1)"/>
    <path d="M25.8 4.1C26.2 4.4 25.9 4.8 25.6 5.0C24.3 4.7 23.4 6.0 22.7 6.9C22.3 9.2 22.8 11.3 22.7 13.8C23.0 16.5 22.8 19.2 23.1 21.9C23.4 23.5 25.5 22.6 25.8 24.2C25.2 25.0 24.2 25.3 23.2 25.4C22.6 26.4 21.3 26.4 20.6 27.3C20.1 27.3 19.7 27.4 19.4 27.8C17.7 28.1 16.5 31.4 14.5 29.4C14.4 28.2 13.0 28.5 12.6 27.5C11.8 26.8 10.7 26.8 9.9 26.4C8.3 25.8 6.7 25.1 5.0 24.6C3.5 23.8 2.1 22.4 1.7 20.7C1.7 19.4 1.4 18.1 1.7 16.9C1.1 14.6 1.9 12.0 1.2 9.8C1.7 7.8 1.5 5.5 2.2 3.5C3.0 2.0 4.3 1.1 5.6 -0.1C6.2 -0.2 6.8 0.0 7.3 0.4C8.4 1.6 9.6 2.7 11.1 3.5C11.7 4.2 13.1 4.0 13.1 5.0C12.5 5.3 11.8 4.7 11.3 4.7C7.8 5.0 9.8 9.0 9.0 11.2C9.5 13.3 8.6 15.6 9.2 17.8C9.1 19.9 8.8 21.8 9.1 23.9C9.2 24.9 10.2 25.0 11.0 24.9C12.8 23.9 15.3 23.6 15.6 21.1C14.4 19.3 15.8 17.6 15.2 15.8C15.9 14.4 15.0 12.8 14.9 11.3C15.2 10.6 15.4 9.7 15.1 8.9C15.6 7.4 14.2 6.1 15.1 4.7C15.9 3.3 16.8 1.9 18.0 1.0C18.8 0.7 19.0 -0.4 19.9 -0.1C21.8 1.5 23.9 2.5 25.8 4.1Z" transform="translate(353.9, 93.0) scale(1, -1)"/>
    <path d="M28.6 24.4C28.8 24.8 28.4 25.2 28.1 25.5C28.1 25.7 27.9 25.6 27.8 25.8C27.8 26.6 26.8 26.8 26.5 27.4C25.8 27.7 25.6 28.5 25.1 29.0C24.6 29.0 25.0 29.1 24.6 29.3C23.2 29.1 23.3 27.7 22.7 26.7L22.4 26.5C22.3 25.8 21.8 25.3 21.5 24.7C21.1 24.2 21.0 23.6 20.5 23.2C20.3 22.8 20.0 21.9 19.8 21.5C19.1 20.7 18.5 19.3 17.9 18.3C17.7 18.2 17.5 18.8 17.2 19.0C16.7 19.8 16.5 20.7 16.1 21.6C15.2 22.7 15.3 24.2 14.5 25.4C14.4 26.7 13.3 27.2 12.5 28.0C12.3 28.3 11.8 28.3 11.7 28.7C10.9 28.8 10.7 29.6 9.9 29.7C9.1 29.8 8.3 29.4 7.5 29.5C6.6 29.4 6.1 29.5 5.3 29.4C4.7 29.1 4.0 29.5 3.5 29.1C3.3 28.8 3.2 28.2 3.1 27.9C2.8 26.8 1.7 26.0 1.9 24.7C2.5 24.7 3.2 24.2 4.0 24.4C4.9 24.2 5.6 23.4 5.9 22.5C6.4 22.1 6.6 21.5 6.9 20.8C7.7 20.1 7.7 19.0 8.3 18.2C9.0 16.1 10.5 13.6 11.5 11.5C11.9 10.5 10.8 9.5 10.7 8.7C10.4 7.8 9.7 7.3 9.2 6.5C9.1 6.3 7.9 6.9 7.8 7.1C7.2 7.5 6.8 8.1 6.4 8.7C5.8 9.2 5.2 10.4 4.2 10.2C3.8 9.7 3.9 8.9 3.3 8.6C2.7 7.3 1.9 6.0 1.4 4.7C0.8 4.1 1.9 3.8 1.9 3.3C2.6 2.9 3.2 2.1 3.8 1.5C4.1 0.9 4.7 0.5 5.1 0.0C5.3 -0.4 5.8 -0.7 6.3 -0.9C6.7 -0.8 6.7 -0.2 6.9 0.1C7.5 0.7 7.7 1.6 8.0 2.4C8.2 2.9 8.7 3.3 8.9 3.9C9.4 5.1 10.3 6.1 10.9 7.3C11.3 7.8 11.3 8.5 11.8 8.8C12.3 8.7 12.1 8.2 12.3 7.9C12.5 6.8 13.1 5.6 13.7 4.7C14.2 3.5 14.4 2.0 15.7 1.5C16.6 0.9 17.8 0.2 18.5 -0.3H18.5C19.2 -0.6 19.7 -1.1 20.3 -1.5C20.8 -1.6 21.3 -1.3 21.7 -0.9C22.1 -0.4 22.8 -0.3 23.0 0.3C23.6 0.4 23.7 1.1 24.2 1.4C24.6 1.6 24.6 2.0 25.0 2.1C25.4 2.8 26.1 3.2 26.7 3.7C26.9 4.5 27.7 4.6 28.0 5.4C28.0 5.6 28.0 5.8 27.9 6.1C27.7 6.3 27.4 6.4 27.1 6.4C26.4 6.2 25.7 5.8 25.0 5.7C24.7 5.4 24.2 5.6 23.9 5.8C23.5 6.0 22.8 5.8 22.8 6.3C22.3 6.6 21.8 6.9 21.8 7.5C20.8 8.6 20.6 9.9 20.0 11.2C19.9 11.7 19.7 12.2 19.5 12.6C19.5 13.3 18.9 13.8 18.9 14.4C18.5 14.8 18.4 15.4 18.2 15.9C18.3 17.3 19.2 18.5 19.8 19.7C20.0 20.0 20.4 20.2 20.5 20.6C20.7 21.0 20.9 21.5 21.3 21.8C21.6 21.8 21.8 21.6 22.1 21.4C22.6 20.6 23.2 20.1 23.8 19.4C24.2 18.9 24.9 18.8 25.0 18.0C25.6 17.8 25.5 18.6 25.9 18.8C26.2 19.3 26.7 20.0 26.8 20.6C27.0 21.2 27.2 21.9 27.5 22.5C28.0 22.8 27.9 23.3 28.3 23.6C28.5 23.8 28.3 24.2 28.6 24.4Z" transform="translate(381.0, 93.0) scale(1, -1)"/>
    <path d="M22.1 5.0V5.3C22.1 5.6 21.7 5.7 21.5 5.6C20.3 5.1 19.1 4.8 17.9 4.5C16.7 4.8 15.8 4.2 14.8 4.7C12.6 5.8 10.3 7.5 9.9 10.0C9.7 11.7 9.6 13.5 9.1 15.0C9.5 17.2 9.1 20.0 9.1 22.2C9.4 23.1 9.5 24.5 10.8 24.6C11.3 24.2 11.9 23.7 12.0 23.0C12.3 21.5 13.8 20.8 14.0 19.4C14.3 18.8 14.6 18.3 14.8 17.7C14.9 17.4 14.9 16.9 14.7 16.7C13.8 15.9 13.0 15.3 12.0 14.5C12.0 14.5 12.0 14.4 12.0 14.3C12.4 14.3 12.8 14.3 13.2 14.5C14.2 15.0 15.1 15.6 16.2 16.1C16.5 16.2 16.9 16.2 17.2 16.3C17.5 16.4 17.7 16.5 18.0 16.6C18.8 17.5 19.9 17.5 21.0 17.5C23.8 18.1 21.3 20.5 21.0 21.9C19.7 23.5 19.2 25.2 18.4 27.0C17.5 27.6 17.7 29.6 16.2 29.2C15.5 29.3 15.3 28.5 14.8 28.2C12.7 26.8 10.4 26.3 8.0 25.9C7.2 25.8 6.6 25.5 6.1 24.9C4.5 24.6 3.3 23.1 2.4 21.8C2.0 21.1 2.5 20.1 1.6 19.6C1.7 16.7 1.1 13.8 1.2 11.0C1.9 10.1 1.6 8.8 2.0 7.9C1.6 6.9 2.5 6.3 2.4 5.5C2.5 4.3 3.8 4.0 4.2 3.0C5.6 1.4 7.7 0.6 9.5 -0.7C11.3 -1.0 12.6 0.4 13.9 1.3C14.6 1.2 15.2 1.7 15.9 1.9C17.9 3.0 20.3 3.3 22.1 5.0Z" transform="translate(410.8, 93.0) scale(1, -1)"/>
    <path d="M15.1 37.9C13.6 38.3 12.1 37.8 10.7 37.5C9.2 36.8 7.9 35.8 6.4 35.4C5.9 34.1 4.2 34.1 3.7 32.7C2.5 32.0 2.2 33.8 1.4 34.3L1.2 34.2C1.2 33.8 1.6 33.7 1.7 33.4C1.8 32.0 3.2 30.9 2.7 29.6C3.2 28.1 2.7 26.1 3.3 24.7C3.2 22.4 3.2 20.4 3.6 18.2C3.2 18.0 3.3 17.6 3.2 17.3C3.7 15.6 3.2 13.6 3.0 11.8C3.5 10.0 3.0 7.9 2.5 6.0C2.2 5.3 0.8 4.8 1.4 4.0C2.7 3.7 3.8 2.8 5.0 2.0C5.2 0.8 6.4 0.1 7.6 -0.1C9.1 0.6 10.5 1.6 11.9 2.3C13.0 2.0 14.0 2.7 14.8 3.4C14.9 3.7 14.8 4.1 14.6 4.3C13.7 4.1 13.1 4.1 12.2 4.3C11.6 4.7 11.0 5.0 10.8 5.7C10.1 9.3 11.0 12.9 10.5 16.3C11.2 18.4 10.5 20.7 10.7 22.8C10.5 24.4 10.9 26.0 10.7 27.8C11.0 30.7 9.9 34.4 12.6 36.4C13.4 37.0 15.1 36.5 15.1 37.9Z" transform="translate(434.4, 93.0) scale(1, -1)"/>
  </g>
  <text x="340" y="122" text-anchor="middle"
    font-family="IM Fell English,serif" font-style="italic" font-size="15" fill="#8b949e" letter-spacing="2">[sɛθ ˈæk.səl]</text>
  <text x="340" y="136" text-anchor="middle"
    font-family="IM Fell English,serif" font-style="italic" font-size="13" fill="#8b949e" opacity="0.8">he/him · Junior C &amp; Python Dev</text>
</svg>